<svg width="21" height="24" viewBox="0 0 21 24" fill="none" xmlns="http://www.w3.org/2000/svg">
<path fillRule="evenodd" clipRule="evenodd" d="M10.8027 8.27087C9.63665 8.27087 8.68811 9.21942 8.68811 10.3867C8.68811 11.5527 9.63665 12.5 10.8027 12.5C11.9687 12.5 12.9173 11.5527 12.9173 10.3867C12.9173 9.21942 11.9687 8.27087 10.8027 8.27087M10.8027 14.3125C8.63736 14.3125 6.87561 12.552 6.87561 10.3867C6.87561 8.22012 8.63736 6.45837 10.8027 6.45837C12.968 6.45837 14.7298 8.22012 14.7298 10.3867C14.7298 12.552 12.968 14.3125 10.8027 14.3125" fill="#8DC540"/>
<mask id="mask0_17601_239" style="mask-type:alpha" maskUnits="userSpaceOnUse" x="0" y="0" width="21" height="24">
<path fillRule="evenodd" clipRule="evenodd" d="M0.833313 0.416687H20.7702V23.9792H0.833313V0.416687Z" fill="white"/>
</mask>
<g mask="url(#mask0_17601_239)">
<path fillRule="evenodd" clipRule="evenodd" d="M10.8015 2.22919C6.30404 2.22919 2.6452 5.92306 2.6452 10.4616C2.6452 16.2362 9.44087 21.8622 10.8015 22.1619C12.162 21.861 18.9577 16.235 18.9577 10.4616C18.9577 5.92306 15.2989 2.22919 10.8015 2.22919V2.22919ZM10.8015 23.9792C8.6337 23.9792 0.832703 17.2705 0.832703 10.4616C0.832703 4.92256 5.30474 0.416687 10.8015 0.416687C16.2982 0.416687 20.7702 4.92256 20.7702 10.4616C20.7702 17.2705 12.9692 23.9792 10.8015 23.9792V23.9792Z" fill="#8DC540"/>
</g>
</svg>
