<svg width="16" height="16" viewBox="0 0 16 16" fill="none" xmlns="http://www.w3.org/2000/svg">
<path d="M8.31172 14.5219H3.04922C2.32422 14.5219 1.73047 13.9407 1.73047 13.2282V3.9532C1.73047 2.3157 2.94922 1.57195 4.44297 2.3032L7.21797 3.6657C7.81797 3.95945 8.31172 4.7407 8.31172 5.4032V14.5219Z" stroke="#252525" stroke-linecap="round" stroke-linejoin="round"/>
<path d="M14.2312 10.1844V12.5469C14.2312 13.8969 13.6062 14.5219 12.2562 14.5219H8.3125V7.28442L8.60625 7.34692L11.4187 7.97817L12.6875 8.25942C13.5125 8.44067 14.1875 8.86567 14.225 10.0657C14.2312 10.1032 14.2312 10.1407 14.2312 10.1844Z" stroke="#252525" stroke-linecap="round" stroke-linejoin="round"/>
<path d="M3.9375 6.39697H6.10625" stroke="#252525" stroke-linecap="round" stroke-linejoin="round"/>
<path d="M3.9375 8.89697H6.10625" stroke="#252525" stroke-linecap="round" stroke-linejoin="round"/>
<path d="M11.418 7.97817V9.99067C11.418 10.7657 10.7867 11.3969 10.0117 11.3969C9.23672 11.3969 8.60547 10.7657 8.60547 9.99067V7.34692L11.418 7.97817Z" stroke="#252525" stroke-linecap="round" stroke-linejoin="round"/>
<path d="M14.2242 10.0658C14.1867 10.8033 13.5742 11.397 12.8242 11.397C12.0492 11.397 11.418 10.7658 11.418 9.99077V7.97827L12.6867 8.25952C13.5117 8.44077 14.1867 8.86577 14.2242 10.0658Z" stroke="#252525" stroke-linecap="round" stroke-linejoin="round"/>
</svg>
