<svg width="13" height="15" viewBox="0 0 13 15" fill="none" xmlns="http://www.w3.org/2000/svg">
<path fillRule="evenodd" clipRule="evenodd" d="M12.2093 2.52496C12.4816 2.52496 12.7083 2.75106 12.7083 3.03876V3.30475C12.7083 3.58545 12.4816 3.81855 12.2093 3.81855H0.607974C0.334978 3.81855 0.108276 3.58545 0.108276 3.30475V3.03876C0.108276 2.75106 0.334978 2.52496 0.607974 2.52496H2.64897C3.06357 2.52496 3.42439 2.23026 3.51766 1.81447L3.62454 1.33707C3.79065 0.686778 4.33733 0.254883 4.96297 0.254883H7.85359C8.47243 0.254883 9.02522 0.686779 9.18521 1.30277L9.29958 1.81377C9.39217 2.23026 9.75299 2.52496 10.1683 2.52496H12.2093ZM11.1724 12.2487C11.3855 10.2628 11.7585 5.54487 11.7585 5.49727C11.7722 5.35307 11.7252 5.21657 11.6319 5.10667C11.5318 5.00377 11.4052 4.94288 11.2656 4.94288H1.55626C1.41602 4.94288 1.28259 5.00377 1.19 5.10667C1.09605 5.21657 1.04976 5.35307 1.05656 5.49727C1.05782 5.50602 1.0712 5.67221 1.09358 5.95005C1.193 7.18432 1.46991 10.622 1.64885 12.2487C1.77548 13.4471 2.56178 14.2003 3.70074 14.2276C4.57964 14.2479 5.48508 14.2549 6.41095 14.2549C7.28304 14.2549 8.16875 14.2479 9.07487 14.2276C10.2533 14.2073 11.0389 13.4674 11.1724 12.2487Z" fill="#D92127"/>
</svg>
