<svg width="34" height="34" viewBox="0 0 34 34" fill="none" xmlns="http://www.w3.org/2000/svg">
<path d="M0 17C0 7.61116 7.61116 0 17 0V0C26.3888 0 34 7.61116 34 17V17C34 26.3888 26.3888 34 17 34V34C7.61116 34 0 26.3888 0 17V17Z" fill="#8DC540"/>
<path d="M20.3607 24.7305V22.8897H7.03906V24.7305C7.03906 24.9712 7.08648 25.2096 7.17862 25.4321C7.27075 25.6545 7.40579 25.8566 7.57604 26.0268C7.74628 26.1971 7.94838 26.3321 8.17082 26.4243C8.39325 26.5164 8.63165 26.5638 8.87241 26.5638H22.194C21.9533 26.5638 21.7149 26.5164 21.4924 26.4243C21.27 26.3321 21.0679 26.1971 20.8977 26.0268C20.7274 25.8566 20.5924 25.6545 20.5002 25.4321C20.4081 25.2096 20.3607 24.9712 20.3607 24.7305V24.7305Z" fill="#F5F5F5"/>
<path d="M25.4665 7.43617C25.0776 7.43624 24.7046 7.59077 24.4296 7.86578C24.1546 8.14079 24.0001 8.51377 24 8.90269V11.8363H26.9333V8.90269C26.9332 8.51372 26.7787 8.14071 26.5036 7.86569C26.2285 7.59067 25.8555 7.43617 25.4665 7.43617Z" fill="#F5F5F5"/>
<path fillRule="evenodd" clipRule="evenodd" d="M9.77623 7.97315C10.1201 7.62933 10.5864 7.43617 11.0726 7.43617H25.4942L24.7609 8.1697L24.0277 8.90322V24.7305C24.0277 25.2167 23.8345 25.683 23.4907 26.0269C23.1469 26.3707 22.6806 26.5638 22.1943 26.5638C21.7081 26.5638 21.2418 26.3707 20.8979 26.0269C20.5541 25.683 20.361 25.2167 20.361 24.7305V22.8897H9.23926V9.26952C9.23926 8.78328 9.43241 8.31697 9.77623 7.97315ZM11.5357 12C11.2398 12 11 12.2398 11 12.5357C11 12.8316 11.2398 13.0714 11.5357 13.0714H20.4643C20.7602 13.0714 21 12.8316 21 12.5357C21 12.2398 20.7602 12 20.4643 12H11.5357ZM12 15.5714C12 15.2953 12.2239 15.0714 12.5 15.0714H19.5C19.7761 15.0714 20 15.2953 20 15.5714C20 15.8476 19.7761 16.0714 19.5 16.0714H12.5C12.2239 16.0714 12 15.8476 12 15.5714ZM12.5 18.1429C12.2239 18.1429 12 18.3667 12 18.6429C12 18.919 12.2239 19.1429 12.5 19.1429H19.5C19.7761 19.1429 20 18.919 20 18.6429C20 18.3667 19.7761 18.1429 19.5 18.1429H12.5Z" fill="white"/>
</svg>
