<svg width="12" height="14" viewBox="0 0 12 14" fill="none" xmlns="http://www.w3.org/2000/svg">
<path fillRule="evenodd" clipRule="evenodd" d="M6.167 4.66663C5.52367 4.66663 5.00034 5.18996 5.00034 5.83396C5.00034 6.47729 5.52367 6.99996 6.167 6.99996C6.81034 6.99996 7.33367 6.47729 7.33367 5.83396C7.33367 5.18996 6.81034 4.66663 6.167 4.66663M6.167 7.99996C4.97234 7.99996 4.00034 7.02863 4.00034 5.83396C4.00034 4.63863 4.97234 3.66663 6.167 3.66663C7.36167 3.66663 8.33367 4.63863 8.33367 5.83396C8.33367 7.02863 7.36167 7.99996 6.167 7.99996" fill="#747474"/>
<mask id="mask0_17422_8801" style="mask-type:alpha" maskUnits="userSpaceOnUse" x="0" y="0" width="12" height="14">
<path fillRule="evenodd" clipRule="evenodd" d="M0.666656 0.333313H11.6663V13.3333H0.666656V0.333313Z" fill="white"/>
</mask>
<g mask="url(#mask0_17422_8801)">
<path fillRule="evenodd" clipRule="evenodd" d="M6.16632 1.33331C3.68499 1.33331 1.66632 3.37131 1.66632 5.87531C1.66632 9.06131 5.41565 12.1653 6.16632 12.3306C6.91699 12.1646 10.6663 9.06065 10.6663 5.87531C10.6663 3.37131 8.64765 1.33331 6.16632 1.33331V1.33331ZM6.16632 13.3333C4.97032 13.3333 0.666321 9.63198 0.666321 5.87531C0.666321 2.81931 3.13365 0.333313 6.16632 0.333313C9.19899 0.333313 11.6663 2.81931 11.6663 5.87531C11.6663 9.63198 7.36232 13.3333 6.16632 13.3333V13.3333Z" fill="#747474"/>
</g>
</svg>
