<?xml version="1.0" encoding="utf-8"?>
<!-- Generator: Adobe Illustrator 27.0.0, SVG Export Plug-In . SVG Version: 6.00 Build 0)  -->
<svg version="1.1" id="Layer_1" xmlns="http://www.w3.org/2000/svg" xmlns:xlink="http://www.w3.org/1999/xlink" x="0px" y="0px"
	 viewBox="0 0 512 512" style="enable-background:new 0 0 512 512;" xml:space="preserve">
<style type="text/css">
	.st0{fill:#7C7C7C;}
</style>
<path d="M441.6,335V203.7c0-2.5-1-5-2.8-6.8l0,0l0,0c-1.8-1.8-4.2-2.8-6.8-2.8h-13.4h-17.3h-62.9H256h-82.4h-62.9H93.9h-0.5H80
	c-2.5,0-5,1-6.8,2.8l0,0l0,0c-1.8,1.8-2.8,4.2-2.8,6.8V335c0,149.9-0.5,139.1,6.3,149.6c5.3,8.2,12.9,14.1,22.1,17.2
	c4.4,1.5,17.6,1.6,157.2,1.6s152.8-0.1,157.2-1.6c9.3-3.1,16.8-9,22.1-17.2C442.1,474.1,441.6,484.9,441.6,335z M295.2,328.3
	c-1.8,6.8-6.9,15.1-11.6,19.1l0,0c-2.4,2.1-3.7,5.2-3.3,8.3l2.5,23.3c3.6,32.3,3.7,34.2,1.4,37c-3.2,4-5,4.3-28.2,4.3
	s-25-0.3-28.2-4.3c-2.3-2.8-2.2-4.7,1.4-37l2.5-23.3c0.3-3.2-0.9-6.3-3.3-8.3l0,0c-4.7-4.1-9.8-12.4-11.6-19.1
	c-7.8-29.6,19.6-57.3,49.3-49.6C287.7,284.3,300.9,306.9,295.2,328.3z"/>
<path class="st0" d="M174,167.3c0.4-23.6,0.8-27.7,2.6-34.4c8.1-30.2,32.4-53.6,62.4-60c7.8-1.7,25.6-1.7,33.6-0.1
	c30.2,6.5,54.5,29.7,62.7,60.1c1.8,6.7,2.2,10.8,2.6,34.4l0.4,26.9h62.9l-0.6-28.8c-0.4-20.4-1-31.1-2-37.2
	c-11-59.3-54.4-104-113.7-117.2c-9.9-2.2-42.1-2.8-52.2-1.1c-49.1,8.8-89.2,39.7-108.9,84c-9.7,21.9-11.9,34.4-12.6,71.4l-0.6,28.8
	h62.9L174,167.3z"/>
</svg>
