<svg width="67" height="60" viewBox="0 0 67 60" fill="none" xmlns="http://www.w3.org/2000/svg">
<path d="M31.1963 40.7392C22.7178 33.4133 13.6733 29.4062 5.41502 28.6603C8.61086 21.283 13.1561 14.2667 19.0155 7.98626C28.2044 14.3787 36.7294 24.1073 43.2953 36.8721C39.1074 37.6138 35.0381 38.9145 31.1963 40.7392V40.7392Z" fill="#A7C05D"/>
<path d="M31.3727 39.9316C23.2761 32.7183 14.6088 28.542 6.54742 27.3832C9.62916 20.8697 13.6698 14.8549 18.5348 9.53936C27.3225 15.4578 35.5584 24.4401 42.0954 36.2372C38.3882 37.0422 34.789 38.2823 31.3727 39.9316V39.9316Z" fill="#4E7735"/>
<path d="M35.7484 31.8535C34.9679 30.8428 34.7164 29.7359 34.9972 28.7134C31.1098 23.7341 26.8878 19.5202 22.4988 16.1071C20.9848 16.5915 19.5498 16.6498 18.5938 16.0435C17.6377 15.4371 16.6677 14.8524 15.6986 14.3132C13.5209 17.0222 11.5442 19.8868 9.78447 22.8841C10.7197 23.1628 11.6559 23.48 12.5931 23.8356C13.4999 24.1849 13.8568 25.1905 13.7163 26.4032C18.072 28.0797 22.4724 30.5705 26.7536 33.8733C27.9314 33.8059 29.0899 34.185 29.9096 34.931C30.9949 35.9142 32.068 36.9506 33.1289 38.04C34.9401 37.219 36.7995 36.5087 38.6969 35.9132C37.7372 34.5097 36.7544 33.1565 35.7484 31.8535Z" fill="#A7C05D"/>
<path d="M27.9579 28.4985C25.2021 30.4502 21.7038 31.3345 19.8299 30.3962C17.956 29.458 18.3765 26.2139 21.2132 23.2151C24.05 20.2163 28.2387 19.4818 30.0051 21.4611C31.7715 23.4404 30.6893 26.5439 27.9579 28.4985Z" fill="#4E7735"/>
<path d="M18.5003 22.1834C17.4134 23.4198 15.8807 24.1059 14.9993 23.7184C14.118 23.3308 14.2061 21.8632 15.2802 20.437C16.3543 19.0107 18.0239 18.322 18.9146 18.8994C19.8054 19.4768 19.5815 20.9451 18.5003 22.1834Z" fill="#4E7735"/>
<path d="M32.5391 33.603C31.5323 34.1252 30.0618 33.9456 29.2175 33.2067C28.3733 32.4679 28.4936 31.2912 29.5393 30.5822C30.5849 29.8732 32.1308 30.0526 32.9364 30.9803C33.7421 31.908 33.5441 33.0831 32.5391 33.603Z" fill="#4E7735"/>
<g filter="url(#filter0_d_11516_113505)">
<path d="M37.3316 33.6328H41.1174C48.017 33.6328 53.6091 26.1777 53.6091 16.9794C53.6091 7.78106 48.0203 0.325928 41.1174 0.325928H37.3316V33.6328Z" fill="#CF9E00"/>
<path d="M51.196 7.14233C48.9239 3.01057 45.2579 0.325928 41.1195 0.325928H37.3337V7.14233H51.196Z" fill="#CF9E00"/>
<path d="M53.5281 15.0865C53.3146 12.305 52.5213 9.59892 51.1994 7.14233H37.337V15.0865H53.5281Z" fill="#E3B726"/>
<path d="M49.8275 16.9794C49.8275 7.78438 44.2353 0.325928 37.3358 0.325928C30.4362 0.325928 24.8474 7.78438 24.8474 16.9794C24.8474 26.1744 30.4395 33.6361 37.3358 33.6361C44.232 33.6361 49.8275 26.1777 49.8275 16.9794Z" fill="#FFD345"/>
<path d="M46.2021 16.9794C46.2021 10.4624 42.2401 5.17957 37.3531 5.17957C32.4662 5.17957 28.5008 10.4624 28.5008 16.9794C28.5008 23.4964 32.4629 28.7825 37.3531 28.7825C42.2434 28.7825 46.2021 23.4964 46.2021 16.9794Z" fill="#E1B21B"/>
<path d="M46.1692 16.9726C46.1692 10.4556 42.2038 5.16943 37.3169 5.16943C32.4299 5.16943 28.4645 10.4556 28.4645 16.9726C28.4645 23.4896 32.4266 28.7723 37.3169 28.7723C42.2071 28.7723 46.1692 23.4896 46.1692 16.9726Z" fill="#E1AC00"/>
<path d="M42.9277 3.64603C43.5321 3.90942 44.1844 4.04535 44.8438 4.04535C45.5032 4.04535 46.1555 3.90942 46.76 3.64603C46.1555 3.38264 45.5032 3.2467 44.8438 3.2467C44.1844 3.2467 43.5321 3.38264 42.9277 3.64603V3.64603Z" fill="white"/>
<path d="M44.8448 1.09131C44.45 2.7717 44.45 4.52072 44.8448 6.20112C45.244 4.52123 45.244 2.77119 44.8448 1.09131V1.09131Z" fill="white"/>
</g>
<defs>
<filter id="filter0_d_11516_113505" x="12.2076" y="0.325928" width="54.0413" height="59.3333" filterUnits="userSpaceOnUse" color-interpolation-filters="sRGB">
<feFlood flood-opacity="0" result="BackgroundImageFix"/>
<feColorMatrix in="SourceAlpha" type="matrix" values="0 0 0 0 0 0 0 0 0 0 0 0 0 0 0 0 0 0 127 0" result="hardAlpha"/>
<feOffset dy="13.3833"/>
<feGaussianBlur stdDeviation="6.3199"/>
<feComposite in2="hardAlpha" operator="out"/>
<feColorMatrix type="matrix" values="0 0 0 0 0.686438 0 0 0 0 0.7875 0 0 0 0 0.534844 0 0 0 0.58 0"/>
<feBlend mode="normal" in2="BackgroundImageFix" result="effect1_dropShadow_11516_113505"/>
<feBlend mode="normal" in="SourceGraphic" in2="effect1_dropShadow_11516_113505" result="shape"/>
</filter>
</defs>
</svg>
