<svg width="25" height="24" viewBox="0 0 25 24" fill="none" xmlns="http://www.w3.org/2000/svg">
<path fillRule="evenodd" clipRule="evenodd" d="M22.1261 9.50627H17.3361L12.9461 2.93627C12.5461 2.34627 11.6761 2.34627 11.2861 2.93627L6.8961 9.50627H2.1261C1.5761 9.50627 1.1261 9.95627 1.1261 10.5063C1.1261 10.5963 1.1361 10.6863 1.1661 10.7763L3.7061 20.0463C3.9361 20.8863 4.7061 21.5063 5.6261 21.5063H18.6261C19.5461 21.5063 20.3161 20.8863 20.5561 20.0463L23.0961 10.7763L23.1261 10.5063C23.1261 9.95627 22.6761 9.50627 22.1261 9.50627ZM12.1161 5.29627L14.9261 9.50627H9.3061L12.1161 5.29627ZM10.1261 15.5063C10.1261 16.6063 11.0261 17.5063 12.1261 17.5063C13.2261 17.5063 14.1261 16.6063 14.1261 15.5063C14.1261 14.4063 13.2261 13.5063 12.1261 13.5063C11.0261 13.5063 10.1261 14.4063 10.1261 15.5063Z" fill="#252525"/>
</svg>
