<svg width="18" height="20" viewBox="0 0 18 20" fill="none" xmlns="http://www.w3.org/2000/svg">
<path fillRule="evenodd" clipRule="evenodd" d="M15.8332 6.79633C15.8332 8.05226 16.1651 8.79253 16.8956 9.64559C17.4492 10.2741 17.6261 11.0808 17.6261 11.956C17.6261 12.8302 17.3389 13.6601 16.7634 14.3339C16.0101 15.1417 14.9476 15.6573 13.8633 15.747C12.292 15.8809 10.7198 15.9937 9.1266 15.9937C7.53244 15.9937 5.96115 15.9263 4.38985 15.747C3.30455 15.6573 2.24212 15.1417 1.48976 14.3339C0.914318 13.6601 0.626099 12.8302 0.626099 11.956C0.626099 11.0808 0.804 10.2741 1.35659 9.64559C2.10993 8.79253 2.42002 8.05226 2.42002 6.79633V6.3703C2.42002 4.68834 2.83943 3.58852 3.70309 2.51186C4.98716 0.941697 7.04545 0 9.08187 0H9.17132C11.2515 0 13.3763 0.987019 14.6386 2.62466C15.4575 3.67916 15.8332 4.73265 15.8332 6.3703V6.79633ZM6.19977 18.0608C6.19977 17.5573 6.66192 17.3266 7.08928 17.2279C7.58919 17.1222 10.6354 17.1222 11.1353 17.2279C11.5626 17.3266 12.0248 17.5573 12.0248 18.0608C11.9999 18.5402 11.7187 18.9653 11.3301 19.2352C10.8262 19.628 10.2348 19.8767 9.61667 19.9664C9.27478 20.0107 8.93886 20.0117 8.60889 19.9664C7.98972 19.8767 7.39837 19.628 6.89548 19.2342C6.50588 18.9653 6.22462 18.5402 6.19977 18.0608Z" fill="#252525"/>
</svg>
