<svg width="379" opacity="0.2" height="342" viewBox="0 0 379 342" fill="none" xmlns="http://www.w3.org/2000/svg">
<path style="mix-blend-mode:overlay" opacity="0.58" d="M264.212 189.053C264.198 187.403 264.097 185.754 263.907 184.115L563.593 165.065C562.724 157.044 561.432 149.077 559.723 141.2L263.05 179.161C262.681 177.537 262.224 175.935 261.68 174.364L553.296 117.582C550.697 109.724 547.699 102.01 544.314 94.474L259.789 169.689C259.063 168.142 258.26 166.635 257.385 165.172L532.879 72.0411C528.681 64.7335 524.065 57.4671 519.065 50.4475L254.444 160.785C253.376 159.354 252.248 157.963 251.062 156.613L502.943 29.792C497.254 23.1346 491.124 16.5676 484.745 10.2969L247.168 152.622C245.798 151.338 244.356 150.153 242.849 148.927L453.262 -0.0554571H412.556L238.121 145.512C236.519 144.426 234.796 143.389 233.041 142.418L377.572 -0.0554571H346.746L227.745 139.71C225.934 138.887 224.067 138.064 222.136 137.373L319.053 -0.0554571H293.804L216.39 135.423C214.462 134.841 212.499 134.317 210.501 133.851L270.246 -0.0554571H248.026L204.523 132.682C202.504 132.353 200.46 132.098 198.385 131.86L226.735 -0.0554571H206.029L192.151 131.481C191.053 131.481 189.955 131.423 188.85 131.423C187.744 131.423 186.75 131.423 185.708 131.481L185.628 -0.0554571H165.219L179.362 131.892C177.306 132.09 175.273 132.348 173.264 132.666L144.506 -0.0554571H123.199L167.327 133.859C165.363 134.304 163.448 134.814 161.557 135.382L100.979 -0.0225582H77.453L156.076 137.151C154.241 137.826 152.455 138.575 150.708 139.365L52.148 -0.0719318H24.455L145.611 141.883C143.939 142.777 142.315 143.723 140.74 144.722L-6.37093 -0.113069H-41.4358L136.204 147.89C134.738 148.985 133.336 150.137 131.981 151.322L-93.1837 -7.81564C-100.219 -1.94818 -107.022 4.21549 -113.408 10.5026L128.167 154.967C126.965 156.21 125.835 157.502 124.77 158.827L-131.598 30.0307C-137.295 36.754 -142.72 43.683 -147.712 50.7437L121.829 162.818C120.915 164.173 120.069 165.545 119.289 166.933L-161.47 72.2962C-165.649 79.5912 -169.468 87.0976 -172.913 94.7868L117.245 171.179C116.641 172.599 116.106 174.049 115.643 175.524L-181.847 117.919C-184.395 125.66 -186.535 133.536 -188.258 141.512L114.473 179.976C114.161 181.485 113.926 183.009 113.768 184.543L-192.104 165.377C-192.946 173.303 -193.369 181.27 -193.37 189.242V190.156L113.527 189.176V189.242C113.532 190.865 113.625 192.486 113.808 194.097L-191.992 213.848C-191.11 221.869 -189.805 229.836 -188.082 237.713L114.529 198.698C114.852 200.196 115.248 201.676 115.715 203.133L-181.567 261.289C-178.95 269.148 -175.935 276.861 -172.536 284.397L117.374 207.47C117.999 208.91 118.672 210.326 119.433 211.716L-161.022 306.814C-156.807 314.129 -152.143 321.396 -147.151 328.424L122.005 215.831C122.924 217.197 123.912 218.533 124.97 219.839L-131.045 349.038C-125.34 355.695 -119.194 362.254 -112.791 368.533L128.4 223.698C129.61 224.949 130.9 226.167 132.238 227.335L-92.6468 386.777C-85.5954 392.628 -78.1433 398.298 -70.4909 403.713L136.3 230.709L137.302 231.425C138.552 230.602 139.81 229.78 141.084 229.031C154.009 221.221 169.234 216.341 184.354 218.958C192.423 220.365 199.739 224.258 207.279 227.303C211.695 229.08 216.438 230.874 221.214 231.055C225.285 231.211 229.668 230.339 233.602 231.738C240.654 234.207 245.622 240.51 250.429 246.057C256.231 252.789 260.91 260.631 266.039 267.906C266.279 268.243 266.527 268.572 266.76 268.91L419.175 418.592C427.34 413.654 435.345 408.47 442.974 403.063L238.258 232.923C239.86 231.826 241.423 230.69 242.945 229.516L465.057 386.061C472.077 380.194 478.864 374.038 485.226 367.751L247.28 225.788C248.643 224.513 249.925 223.188 251.143 221.83L503.416 348.174C509.105 341.483 514.497 334.53 519.442 327.518L254.54 217.608C255.578 216.2 256.546 214.739 257.441 213.23L533.216 305.851C537.379 298.558 541.182 291.054 544.61 283.368L259.845 208.696C260.556 207.174 261.188 205.614 261.736 204.022L553.521 260.244C556.069 252.504 558.209 244.628 559.931 236.651L263.082 199.224C263.442 197.596 263.71 195.947 263.883 194.287L563.665 212.786C564.479 204.971 564.888 197.118 564.891 189.259V189.053H264.212Z" fill="url(#paint0_radial_1_840)"/>
<defs>
<radialGradient id="paint0_radial_1_840" cx="0" cy="0" r="1" gradientUnits="userSpaceOnUse" gradientTransform="translate(184.384 190.097) scale(343.741 264.764)">
<stop stop-color="white"/>
<stop offset="0.06" stop-color="white" stop-opacity="0.9"/>
<stop offset="0.21" stop-color="white" stop-opacity="0.67"/>
<stop offset="0.35" stop-color="white" stop-opacity="0.46"/>
<stop offset="0.5" stop-color="white" stop-opacity="0.3"/>
<stop offset="0.64" stop-color="white" stop-opacity="0.17"/>
<stop offset="0.77" stop-color="white" stop-opacity="0.08"/>
<stop offset="0.89" stop-color="white" stop-opacity="0.02"/>
<stop offset="1" stop-color="white" stop-opacity="0"/>
</radialGradient>
</defs>
</svg>
