<svg width="18" height="20" viewBox="0 0 18 20" fill="none" xmlns="http://www.w3.org/2000/svg">
<path fillRule="evenodd" clipRule="evenodd" d="M6 7H8V1C8 0.45 8.45 0 9 0C9.55 0 10 0.45 10 1V7C10 9.21 8.21 11 6 11V19C6 19.55 5.55 20 5 20C4.45 20 4 19.55 4 19V11C1.79 11 0 9.21 0 7V1C0 0.45 0.45 0 1 0C1.55 0 2 0.45 2 1V7H4V1C4 0.45 4.45 0 5 0C5.55 0 6 0.45 6 1V7ZM15 12C13.9 12 13 11.1 13 10V4C13 2.51 14.6 0.68 16.76 0.15C17.39 0 18 0.48 18 1.13V19C18 19.55 17.55 20 17 20C16.45 20 16 19.55 16 19V12H15Z" fill="#252525"/>
</svg>
