<svg width="21" height="22" viewBox="0 0 21 22" fill="none" xmlns="http://www.w3.org/2000/svg">
<path fillRule="evenodd" clipRule="evenodd" d="M2.06232 10.573C2.06232 6.00525 5.77846 2.29012 10.3462 2.29012C14.913 2.29012 18.6291 6.00525 18.6291 10.573C18.6291 15.1408 14.913 18.8569 10.3462 18.8569C5.77846 18.8569 2.06232 15.1408 2.06232 10.573ZM0.554199 10.573C0.554199 15.9722 4.947 20.365 10.3463 20.365C12.6554 20.365 14.7802 19.5616 16.4561 18.2195L19.6419 21.3963C19.7897 21.5431 19.9828 21.6165 20.1748 21.6165C20.3679 21.6165 20.5619 21.5431 20.7087 21.3943C21.0033 21.0997 21.0023 20.6231 20.7077 20.3285L17.5592 17.1881C19.1594 15.4444 20.1373 13.1207 20.1373 10.573C20.1373 5.17372 15.7455 0.781921 10.3463 0.781921C4.947 0.781921 0.554199 5.17372 0.554199 10.573Z" fill="#252525"/>
</svg>
