<svg width="17" height="22" viewBox="0 0 17 22" fill="none" xmlns="http://www.w3.org/2000/svg">
<path fillRule="evenodd" clipRule="evenodd" d="M7.0047 1C7.0047 0.45 7.4547 0 8.0047 0C8.5547 0 9.0047 0.45 9.0047 1V9C9.0047 9.55 8.5547 10 8.0047 10C7.4547 10 7.0047 9.55 7.0047 9V1ZM3.0047 22H5.0047V20H3.0047V22ZM7.0047 20V22H9.0047V20H7.0047ZM11.9447 3.06L11.9247 3.08C11.5147 3.49 11.5647 4.16 12.0047 4.54C13.5147 5.88 14.3347 7.97 13.8847 10.24C13.4247 12.52 11.5947 14.38 9.3247 14.86C5.4347 15.69 2.0047 12.74 2.0047 9C2.0047 7.22 2.7847 5.63 4.0147 4.53C4.4447 4.14 4.4847 3.49 4.0847 3.08L4.0647 3.06C3.6947 2.69 3.1047 2.67 2.7047 3.02C0.694696 4.79 -0.415304 7.55 0.144696 10.54C0.734696 13.69 3.2547 16.24 6.4047 16.85C11.5247 17.84 16.0047 13.95 16.0047 9C16.0047 6.62 14.9547 4.48 13.2947 3.01C12.9047 2.67 12.3147 2.69 11.9447 3.06ZM13.0047 20V22H11.0047V20H13.0047Z" fill="#252525"/>
</svg>
