<svg width="43" height="59" viewBox="0 0 43 59" fill="none" xmlns="http://www.w3.org/2000/svg">
<g filter="url(#filter0_d_2242_32581)">
<path d="M9.45879 42.3261L9.26511 42.409L9.29416 42.1884L9.48784 42.1055L9.45879 42.3261Z" fill="#B00800"/>
<path d="M17.9864 32.3218L17.137 31.6067L14.4102 29.3088L11.4108 30.5895L10.9156 30.8012L10.8657 30.8249L10.4106 31.0204L7.14702 32.4136L9.63724 34.5145L9.88764 34.7263L9.93053 34.7633L10.3345 35.1038L10.7371 35.4443L13.4238 37.7081L16.668 36.3194L17.1425 36.115L17.1937 36.0928L17.6724 35.8885L20.6814 34.6004L17.9864 32.3218Z" fill="#B00800"/>
<path d="M13.4293 37.7052L12.4457 45.0015L9.7576 42.7525L9.74653 42.7436L9.27339 42.3468L9.11291 42.2135L8.90539 42.0418L8.65499 41.8316L6.16061 39.7439L7.14979 32.4151L9.89179 34.7248L10.0993 34.8995L10.2584 35.0357L10.744 35.4428L13.4293 37.7052Z" fill="#CC0E0E"/>
<path d="M17.6723 35.887L17.4123 35.9996L17.2241 36.081L17.1854 36.0973L17.1369 36.118L16.668 36.3179L13.4279 37.7052L12.4443 45.0015L15.6815 43.626L16.2349 43.3906L16.4245 43.3092L16.6832 43.1996L19.7033 41.9189L20.691 34.5974L17.6723 35.887Z" fill="#FF3A3A"/>
<path d="M14.3936 29.4198L7.32826 32.4432L13.4459 37.563L20.5015 34.5708L14.3936 29.4198Z" fill="#CC0E0E"/>
<path d="M20.6758 34.6729L20.6689 34.7307L13.4099 37.8355L13.4168 37.7777L20.6758 34.6729Z" fill="#BC7C46"/>
<path d="M17.1964 36.0928L17.1466 36.115L10.8671 30.8249L10.9155 30.8027L17.1964 36.0928Z" fill="#BC7C46"/>
<path d="M17.1864 36.0973L17.1709 36.2157L17.1245 36.2083L17.1371 36.118L17.1864 36.0973Z" fill="#BC7C46"/>
<path d="M17.6737 35.8826L16.6873 43.1996L15.6829 43.626L16.6693 36.312L17.6737 35.8826Z" fill="#CC0E0E"/>
<path d="M17.6751 35.887L17.1964 36.0928L17.1466 36.115L16.6707 36.3194L10.4106 31.0189L10.8671 30.8249L10.9169 30.8012L11.4122 30.5895L17.6751 35.887Z" fill="#E80808"/>
<path d="M10.744 35.4369L9.7576 42.754L9.74654 42.7436L8.9054 42.0418L9.8918 34.7203L10.744 35.4369Z" fill="#CC0E0E"/>
<path d="M17.9864 32.3218L10.7398 35.4443L10.3386 35.1023L10.2957 35.0653L9.93467 34.7633L9.8904 34.7248L15.9804 32.1041L16.4383 31.9072L17.1383 31.6067L17.4676 31.8835L17.6834 32.0671L17.9864 32.3218Z" fill="#E80808"/>
<path d="M17.6834 32.0671L15.9804 32.1041L14.1113 32.1471L14.1072 31.959L16.4383 31.9072L17.4676 31.8835L17.6834 32.0671Z" fill="#B00800"/>
<path d="M14.1127 31.7609L13.7081 31.934L13.9248 32.5142L14.3294 32.341L14.1127 31.7609Z" fill="#939899"/>
<path d="M14.0076 31.5667C13.995 31.5999 13.9867 31.6348 13.9827 31.6703C13.9737 31.7426 13.9737 31.8157 13.9827 31.888C14.0068 31.8909 14.0295 31.9018 14.0477 31.9191C14.0906 31.9592 14.1241 32.0096 14.1455 32.0662C14.1669 32.1228 14.1756 32.184 14.1708 32.2448C14.1684 32.2714 14.1588 32.2966 14.1431 32.3173C14.1815 32.3782 14.2282 32.4326 14.2815 32.4787C14.3084 32.5003 14.3371 32.5192 14.3673 32.535C14.397 32.5524 14.4299 32.563 14.4637 32.5661C14.4976 32.5692 14.5316 32.5646 14.5637 32.5528C14.6039 32.5335 14.6384 32.5028 14.6633 32.4639C14.6934 32.4124 14.7136 32.355 14.7228 32.2951C14.7353 32.1439 14.7143 31.9917 14.6617 31.8508C14.6091 31.7099 14.5262 31.5841 14.4198 31.4838C14.3752 31.4455 14.3233 31.4182 14.2677 31.4038C14.225 31.3917 14.1798 31.3948 14.139 31.4127C14.1083 31.4271 14.0807 31.4483 14.0581 31.4748C14.0354 31.5013 14.0182 31.5326 14.0076 31.5667V31.5667Z" fill="#939899"/>
<path d="M13.8125 31.5548L14.139 31.4157C14.1798 31.3977 14.225 31.3946 14.2677 31.4068L14.6661 32.4713C14.6412 32.5102 14.6067 32.5409 14.5665 32.5602L14.24 32.6993L14.1113 32.3573C14.1267 32.3516 14.1395 32.34 14.1473 32.3247C14.163 32.304 14.1726 32.2788 14.175 32.2522C14.1797 32.1914 14.1711 32.1302 14.1497 32.0736C14.1283 32.017 14.0948 31.9666 14.0518 31.9265C14.0337 31.9092 14.011 31.8983 13.9868 31.8954C13.9719 31.8909 13.9561 31.8909 13.9412 31.8954L13.8125 31.5548Z" fill="#939899"/>
<path d="M14.092 31.6215C14.0671 31.5979 14.0385 31.5794 14.0076 31.5667C13.9782 31.5489 13.9455 31.5381 13.9118 31.5351C13.8782 31.532 13.8443 31.5367 13.8125 31.5489C13.7671 31.5738 13.7286 31.6112 13.7012 31.6573C13.6737 31.7033 13.6582 31.7564 13.6562 31.811C13.6412 31.9557 13.6598 32.1021 13.7101 32.2374C13.7316 32.297 13.758 32.3545 13.789 32.4091C13.8332 32.4893 13.8904 32.5605 13.9578 32.6194C13.9938 32.6565 14.0383 32.6829 14.0869 32.6959C14.1354 32.7089 14.1863 32.708 14.2345 32.6934C14.2658 32.6787 14.2937 32.657 14.3164 32.6296C14.3391 32.6023 14.356 32.57 14.3659 32.535C14.3793 32.5026 14.3878 32.4681 14.3908 32.4328C14.4041 32.282 14.3839 32.1299 14.332 31.9889C14.2801 31.8479 14.1979 31.7221 14.092 31.6215V31.6215ZM14.175 32.2463C14.1729 32.2734 14.1632 32.2991 14.1473 32.3203C14.1387 32.3341 14.126 32.3446 14.1113 32.3499C14.0916 32.356 14.0708 32.3564 14.0509 32.3512C14.031 32.3461 14.0127 32.3354 13.9979 32.3203C13.9846 32.309 13.9725 32.2961 13.9619 32.2818C13.9237 32.232 13.8971 32.1731 13.8844 32.1101C13.8757 32.0723 13.8729 32.0333 13.8761 31.9946C13.878 31.973 13.8848 31.9523 13.8959 31.9342C13.907 31.9162 13.922 31.9013 13.9398 31.8909C13.9546 31.8857 13.9706 31.8857 13.9854 31.8909V31.8909C14.0096 31.8926 14.0326 31.9031 14.0505 31.9206C14.0635 31.9323 14.0755 31.9451 14.0864 31.959L14.1072 31.9442L14.2082 32.0923L14.1667 32.1234C14.1751 32.1638 14.176 32.2055 14.1694 32.2463H14.175Z" fill="#D1D1D1"/>
<path d="M10.2584 35.0357L9.26505 42.409L9.10596 42.2728L10.0993 34.8995L10.2584 35.0357Z" fill="#B00800"/>
<path d="M14.2102 32.0982L14.1685 32.1293C14.1542 32.0667 14.1266 32.0085 14.0878 31.959L14.1087 31.9442L14.2102 32.0982Z" fill="#D1D1D1"/>
<path d="M14.1694 32.1293L13.9633 32.2774L13.7904 32.4047L10.2598 35.0313L10.1007 34.895L13.7115 32.23L13.8858 32.1027L14.0892 31.9546C14.1283 32.0053 14.1558 32.0652 14.1694 32.1293V32.1293Z" fill="#B00800"/>
<path d="M14.1508 32.073C14.1608 32.0956 14.1676 32.1195 14.1709 32.1441V32.1441L14.1293 32.0938L14.1508 32.073Z" fill="#B00800"/>
<path d="M26.817 20.3232L14.5845 31.6777C14.6066 31.7151 14.6269 31.7536 14.6453 31.7932L26.7949 20.5186L26.817 20.3232Z" fill="#B00800"/>
<path d="M14.0795 32.1737L5.31258 16.9119L5.41772 16.8438L14.1681 32.1293L14.0795 32.1737Z" fill="#B00800"/>
<path d="M14.0643 32.1441L11.5215 21.8585L11.6405 21.8259L14.168 32.1293L14.0643 32.1441Z" fill="#B00800"/>
<path d="M14.1506 32.073C14.1604 32.0956 14.167 32.1196 14.1703 32.1441V32.1441L14.1169 32.1071L14.1464 32.0612C14.1484 32.0649 14.1499 32.0689 14.1506 32.073V32.073Z" fill="#B00800"/>
<path d="M19.9717 22.9216L14.5554 31.6378C14.5304 31.6 14.5026 31.5643 14.4724 31.5312L19.8679 22.849L19.9717 22.9216Z" fill="#B00800"/>
<path d="M25.6065 10.3218C21.5737 6.34349 14.3161 5.2227 9.39652 7.81815C4.47695 10.4136 3.76032 15.7422 7.79309 19.7206C11.8259 23.6989 19.0821 24.8182 24.0017 22.2227C28.9212 19.6273 29.6392 14.2987 25.6065 10.3218Z" fill="#A20F0F"/>
<path d="M28.7746 15.7718C28.7123 13.8397 27.8158 11.8409 26.0422 10.0909C25.2318 9.30195 24.3314 8.62589 23.3625 8.07874C22.1807 7.40866 20.9261 6.89744 19.6272 6.5567C19.0531 6.40452 18.4722 6.28345 17.8868 6.19396C17.8204 6.1836 17.7553 6.17323 17.6889 6.16583C17.1964 6.09476 16.6984 6.0459 16.2017 6.01777C15.7355 5.99556 15.2679 5.99112 14.8058 6.00889H14.7726C14.2635 6.02665 13.7599 6.07058 13.2619 6.14066C11.7987 6.33226 10.3748 6.77888 9.04649 7.46282C8.60961 7.69224 8.18844 7.95447 7.78616 8.24753C10.5379 7.09119 13.8346 6.92685 16.917 7.63309C16.9765 7.62124 17.0359 7.6094 17.0996 7.60199H17.1328C17.197 7.59358 17.2617 7.58962 17.3265 7.59015C17.3832 7.59015 17.4427 7.59015 17.5022 7.59015L17.599 7.59755C17.6696 7.60644 17.7374 7.6168 17.8079 7.63161L17.9297 7.65826L18.0431 7.69083H18.0528C18.086 7.70119 18.1178 7.71008 18.1496 7.7234C18.1583 7.7248 18.1668 7.7278 18.1745 7.73228C18.2037 7.74258 18.2323 7.75444 18.2603 7.76782L18.2852 7.77818C18.4265 7.84078 18.5595 7.92291 18.6809 8.02248C18.7452 8.07591 18.8037 8.13701 18.8552 8.20459C19.0835 8.50071 19.0696 8.82347 18.8303 9.06333C18.736 9.15059 18.6284 9.21972 18.5121 9.26765C18.2332 9.37722 17.9348 9.41821 17.6391 9.38757C17.5218 9.37826 17.4052 9.35945 17.2905 9.33131C17.1054 9.28979 16.9263 9.22208 16.7579 9.12995C16.6668 9.08167 16.5806 9.02363 16.5005 8.95673C16.4551 8.91788 16.4117 8.87636 16.3705 8.83236C15.6788 8.81311 14.1902 8.80423 12.9202 9.10182C11.8166 9.34971 10.7473 9.74777 9.73822 10.2863C6.74442 11.8675 5.2323 14.4141 5.32222 17.097C5.83359 18.1722 6.52636 19.137 7.36559 19.9426C7.56896 20.144 7.78062 20.338 7.99921 20.5245C9.16497 21.5054 10.4668 22.2852 11.8577 22.8357C15.5529 24.337 19.9412 24.4643 23.4455 23.0015C23.7595 22.8698 24.0667 22.7261 24.3641 22.5677C27.3538 20.9939 28.8645 18.4473 28.7746 15.7718Z" fill="#E51717"/>
<path d="M7.85672 14.2409C8.27176 14.463 8.78226 15.0138 9.40066 14.7947C9.8738 14.5533 10.3276 14.466 10.5545 13.8708C10.7177 14.8406 10.7564 16.7357 12.0943 16.6276C12.3834 16.672 12.898 16.1213 13.1042 15.6815C13.2868 17.5989 15.3647 18.5494 17.1356 18.508C18.0417 18.3332 19.2356 18.203 19.6493 17.3235C20.0408 16.5965 20.7007 16.0694 20.8045 15.2981C20.763 15.606 20.8446 16.0916 21.1531 15.9821C21.4423 16.0265 21.2361 15.3647 21.4229 15.0789C22.7386 16.2264 25.2481 17.2435 26.2387 15.3499C26.6537 14.4615 26.9623 13.2578 26.3674 12.2214C26.1197 11.869 26.0381 11.3849 25.7918 11.0369C26.0589 11.2353 26.2664 10.7956 26.2871 10.6416C26.3421 10.6043 26.3947 10.5632 26.4448 10.5187C26.3148 10.3707 26.182 10.2374 26.0423 10.0983C25.2318 9.30935 24.3314 8.63329 23.3625 8.08614C22.1807 7.41606 20.9261 6.90484 19.6272 6.5641C19.0531 6.41192 18.4722 6.29085 17.8868 6.20136C17.8204 6.191 17.7554 6.18063 17.6889 6.17323C17.1964 6.10216 16.6984 6.0533 16.2017 6.02517C15.7355 6.00296 15.2679 5.99852 14.8058 6.01629H14.7726C14.2635 6.03406 13.7599 6.07798 13.2619 6.14806C12.0255 6.31365 10.8156 6.65678 9.6649 7.16818C9.4236 7.3756 9.1927 7.59651 8.97317 7.83C11.4634 7.07194 14.2677 7.03345 16.9156 7.64049C16.9751 7.62864 17.0346 7.6168 17.0982 7.60939H17.1314C17.1957 7.60098 17.2604 7.59702 17.3251 7.59755C17.3818 7.59755 17.4413 7.59755 17.5008 7.59755L17.5976 7.60495C17.6682 7.61384 17.736 7.6242 17.8065 7.63901L17.9283 7.66566L18.0417 7.69823H18.0514C18.0846 7.70859 18.1164 7.71748 18.1483 7.7308C18.157 7.7322 18.1654 7.7352 18.1732 7.73969C18.2023 7.74999 18.2309 7.76184 18.2589 7.77522L18.2838 7.78558C18.4251 7.84818 18.5581 7.93031 18.6795 8.02988C18.7439 8.08331 18.8024 8.14441 18.8538 8.21199C19.0821 8.50811 19.0683 8.83087 18.8289 9.07073C18.7347 9.15799 18.627 9.22712 18.5107 9.27505C18.2318 9.38462 17.9335 9.42561 17.6378 9.39498C17.5204 9.38566 17.4038 9.36685 17.2891 9.33871C17.104 9.29719 16.9249 9.22948 16.7565 9.13735C16.6655 9.08907 16.5793 9.03103 16.4992 8.96413C16.4537 8.92528 16.4103 8.88376 16.3691 8.83976C15.6774 8.82051 14.1888 8.81163 12.9188 9.10922C11.8153 9.35711 10.7459 9.75517 9.73684 10.2937C9.25726 10.5477 8.79661 10.8407 8.35892 11.1702L8.42118 11.1806C7.46936 11.6632 6.66419 13.2711 7.85672 14.2409Z" fill="#CC0E0E"/>
<path d="M16.3594 8.83828C15.527 8.83099 14.695 8.88392 13.8692 8.99671C12.4284 9.17096 11.0269 9.61183 9.72716 10.2996C6.73336 11.8809 5.22124 14.4275 5.31117 17.1103C3.8364 13.9167 4.72458 10.4832 7.7751 8.2579C10.5268 7.10156 13.8236 6.93722 16.9059 7.64345C16.8222 7.66142 16.7399 7.68617 16.6597 7.71748C16.1063 7.95141 15.997 8.42964 16.3594 8.83828Z" fill="#CC0E0E"/>
<path d="M18.6463 9.19806C19.4456 9.44302 20.2285 9.74525 20.9899 10.1027C22.3255 10.7053 23.5534 11.5514 24.6187 12.6034C27.0729 15.0256 27.8504 17.9246 27.0577 20.4638C29.3141 17.8476 29.3708 14.2853 27.0314 11.2279C24.6975 9.28689 21.5792 8.13204 18.4402 7.87738C18.5161 7.92057 18.5887 7.97008 18.6574 8.02544C19.1194 8.41631 19.1014 8.90935 18.6463 9.19806Z" fill="#CC0E0E"/>
<path d="M11.8508 22.8416C10.4599 22.2911 9.15807 21.5113 7.99231 20.5304C7.99231 19.2112 8.2441 17.6166 9.03128 15.8296C10.4811 12.5353 14.0781 9.72811 16.7468 9.13588C16.9152 9.228 17.0943 9.29572 17.2794 9.33724C15.2638 10.84 11.3887 20.9124 11.8508 22.8416Z" fill="#CC0E0E"/>
<path d="M19.2633 23.9861C20.7435 23.8787 22.1989 23.5245 23.5769 22.9364C23.9937 21.3686 24.0769 19.7208 23.8204 18.1141C23.3002 14.5134 20.5901 10.7334 18.1884 9.35797C18.002 9.39576 17.8117 9.40672 17.6225 9.39054C19.1596 11.4411 20.2151 22.276 19.2633 23.9861Z" fill="#CC0E0E"/>
<path d="M23.3625 8.07874C21.5128 7.4865 19.3726 7.40951 18.2908 7.7915H18.2742L18.2492 7.78114C18.2212 7.76776 18.1926 7.7559 18.1635 7.74561C18.1557 7.74112 18.1473 7.73812 18.1386 7.73672L18.0777 7.71451L18.0417 7.70415H18.032C17.9949 7.69085 17.957 7.67997 17.9186 7.67158C17.8826 7.66121 17.848 7.65233 17.8121 7.64493C17.848 7.40951 18.6961 6.85133 19.623 6.56706C20.9229 6.90416 22.179 7.4119 23.3625 8.07874V8.07874Z" fill="#CC0E0E"/>
<path d="M17.4897 7.59311C17.4302 7.59311 17.3707 7.59311 17.314 7.59311C17.2493 7.59258 17.1846 7.59654 17.1203 7.60495C16.3442 7.0601 14.7685 6.22209 13.2563 6.14806C13.7544 6.07798 14.258 6.03406 14.7671 6.01629H14.8003C15.2624 5.99852 15.73 6.00296 16.1962 6.02517C16.6679 6.41456 17.4012 7.12524 17.4897 7.59311Z" fill="#CC0E0E"/>
<path d="M16.6597 7.71749C16.7406 7.68351 16.8239 7.65629 16.9087 7.63605C13.8305 6.92982 10.5337 7.09416 7.77789 8.25049C7.57037 8.39855 7.37392 8.55846 7.18577 8.72132C6.69049 9.60078 6.66836 10.5543 7.67413 11.2235C7.78918 11.3073 7.9163 11.3703 8.05043 11.4101C8.57463 10.9815 9.13722 10.6095 9.72995 10.2996C11.0297 9.61183 12.4312 9.17097 13.872 8.99671C14.6978 8.88392 15.5298 8.831 16.3622 8.83829C15.997 8.42965 16.1063 7.95142 16.6597 7.71749Z" fill="#E51717"/>
<path d="M27.9915 13.2578C27.9325 12.9309 27.8492 12.6096 27.7425 12.2969C27.5309 11.9216 27.2947 11.5629 27.0356 11.2235C24.7017 9.28245 21.5834 8.1276 18.4443 7.87294C18.5202 7.91613 18.5929 7.96564 18.6615 8.021C19.1236 8.41039 19.1056 8.90935 18.6505 9.18474C19.4497 9.4297 20.2327 9.73193 20.994 10.0894C22.3291 10.6965 23.5556 11.5471 24.6187 12.6034C25.4047 13.3616 26.064 14.2579 26.568 15.2536C27.6305 15.3484 28.123 14.2868 27.9915 13.2578Z" fill="#E51717"/>
<path d="M17.2795 9.33724C17.0944 9.29572 16.9152 9.228 16.7468 9.13588C14.3825 9.66001 11.2932 11.9223 9.60405 14.7221C9.42835 15.0182 9.64278 15.7852 9.76314 16.0665C9.95548 16.5401 10.3092 16.9176 10.7523 17.1221C11.2421 17.3279 11.7719 17.2228 12.2381 17.0022C12.5729 16.8438 13.4473 16.3967 13.5967 16.0161C14.7699 13.0387 16.2612 10.0953 17.2795 9.33724Z" fill="#E51717"/>
<path d="M18.1884 9.35797C18.002 9.39576 17.8117 9.40672 17.6225 9.39054C18.4637 10.5128 19.1596 14.2602 19.4625 17.707C19.9993 18.4473 20.6966 19.0721 21.6443 18.8914C22.8686 18.6264 23.2629 17.6033 23.4261 16.4307C22.4619 13.394 20.2165 10.5187 18.1884 9.35797Z" fill="#E51717"/>
<path d="M19.623 6.5567C18.6961 6.84097 17.848 7.39915 17.8121 7.63456C17.848 7.64197 17.8826 7.65085 17.9186 7.66122C17.957 7.66961 17.9949 7.68048 18.032 7.69379H18.0417L18.0777 7.70415L18.1386 7.72636C18.1473 7.72776 18.1557 7.73076 18.1635 7.73524C18.1926 7.74554 18.2212 7.7574 18.2492 7.77078L18.2742 7.78114H18.2908C19.3726 7.39915 21.5128 7.47318 23.3625 8.06838C22.179 7.40154 20.9229 6.8938 19.623 6.5567Z" fill="#E51717"/>
<path d="M17.4897 7.59311C17.4302 7.59311 17.3707 7.59311 17.314 7.59311C17.2493 7.59258 17.1846 7.59654 17.1203 7.60495C16.3442 7.0601 14.7685 6.22209 13.2563 6.14806C13.7544 6.07798 14.258 6.03406 14.7671 6.01629H14.8003C15.2624 5.99852 15.73 6.00296 16.1962 6.02517C16.6679 6.41456 17.4012 7.12524 17.4897 7.59311Z" fill="#E51717"/>
</g>
<defs>
<filter id="filter0_d_2242_32581" x="0.614624" y="0.997925" width="42.1637" height="57.0036" filterUnits="userSpaceOnUse" color-interpolation-filters="sRGB">
<feFlood flood-opacity="0" result="BackgroundImageFix"/>
<feColorMatrix in="SourceAlpha" type="matrix" values="0 0 0 0 0 0 0 0 0 0 0 0 0 0 0 0 0 0 127 0" result="hardAlpha"/>
<feOffset dx="5" dy="4"/>
<feGaussianBlur stdDeviation="4.5"/>
<feColorMatrix type="matrix" values="0 0 0 0 0 0 0 0 0 0 0 0 0 0 0 0 0 0 0.15 0"/>
<feBlend mode="normal" in2="BackgroundImageFix" result="effect1_dropShadow_2242_32581"/>
<feBlend mode="normal" in="SourceGraphic" in2="effect1_dropShadow_2242_32581" result="shape"/>
</filter>
</defs>
</svg>
