<svg width="80" height="80" viewBox="0 0 80 80" fill="none" xmlns="http://www.w3.org/2000/svg">
<path d="M40 0.625C18.2559 0.625 0.625 18.2559 0.625 40C0.625 61.7441 18.2559 79.375 40 79.375C61.7441 79.375 79.375 61.7441 79.375 40C79.375 18.2559 61.7441 0.625 40 0.625ZM40 7.65625C40.7734 7.65625 41.4062 8.28906 41.4062 9.0625C41.4062 9.83594 40.7734 10.4688 40 10.4688C39.2266 10.4688 38.5938 9.83594 38.5938 9.0625C38.5938 8.28906 39.2266 7.65625 40 7.65625ZM9.0625 41.4062C8.28906 41.4062 7.65625 40.7734 7.65625 40C7.65625 39.2266 8.28906 38.5938 9.0625 38.5938C9.83594 38.5938 10.4688 39.2266 10.4688 40C10.4688 40.7734 9.83594 41.4062 9.0625 41.4062ZM13.9141 56.6816C13.2461 57.0684 12.3848 56.8398 11.998 56.1719C11.6113 55.5039 11.8398 54.6426 12.5078 54.2559C13.1758 53.8691 14.0371 54.0977 14.4238 54.7656C14.8105 55.4336 14.582 56.2949 13.9141 56.6816ZM14.4238 25.2344C14.0371 25.9023 13.1758 26.1309 12.5078 25.7441C11.8398 25.3574 11.6113 24.4961 11.998 23.8281C12.3848 23.1602 13.2461 22.9316 13.9141 23.3184C14.582 23.7051 14.8105 24.5664 14.4238 25.2344ZM23.8281 11.998C24.4961 11.6113 25.3574 11.8398 25.7441 12.5078C26.1309 13.1758 25.9023 14.0371 25.2344 14.4238C24.5664 14.8105 23.7051 14.582 23.3184 13.9141C22.9316 13.2461 23.1602 12.3848 23.8281 11.998ZM25.7441 67.4922C25.3574 68.1602 24.4961 68.3887 23.8281 68.002C23.1602 67.6152 22.9316 66.7539 23.3184 66.0859C23.7051 65.418 24.5664 65.1895 25.2344 65.5762C25.9023 65.9629 26.1309 66.8242 25.7441 67.4922ZM40 72.3438C39.2266 72.3438 38.5938 71.7109 38.5938 70.9375C38.5938 70.1641 39.2266 69.5312 40 69.5312C40.7734 69.5312 41.4062 70.1641 41.4062 70.9375C41.4062 71.7109 40.7734 72.3438 40 72.3438ZM41.4062 42.4434V63.9062C41.4062 64.6797 40.7734 65.3125 40 65.3125C39.2266 65.3125 38.5938 64.6797 38.5938 63.9062V42.4258C38.1719 42.1797 37.8203 41.8457 37.5566 41.4062C37.0293 40.4922 37.082 39.3848 37.5918 38.541L30.9824 27.4844C30.5781 26.8164 30.8066 25.9551 31.457 25.5508C32.125 25.1465 32.9863 25.375 33.3906 26.0254L40.0703 37.1699C41.0195 37.1875 41.9336 37.6973 42.4258 38.5762C43.2168 39.9473 42.7598 41.6523 41.4062 42.4434ZM56.1719 68.002C55.5039 68.3887 54.6426 68.1602 54.2559 67.4922C53.8691 66.8242 54.0977 65.9629 54.7656 65.5762C55.4336 65.1895 56.2949 65.418 56.6816 66.0859C57.0684 66.7539 56.8398 67.6152 56.1719 68.002ZM56.6816 13.9141C56.2949 14.582 55.4336 14.8105 54.7656 14.4238C54.0977 14.0371 53.8691 13.1758 54.2559 12.5078C54.6426 11.8398 55.5039 11.6113 56.1719 11.998C56.8398 12.3848 57.0684 13.2461 56.6816 13.9141ZM68.002 56.1719C67.6152 56.8398 66.7539 57.0684 66.0859 56.6816C65.418 56.2949 65.1895 55.4336 65.5762 54.7656C65.9629 54.0977 66.8242 53.8691 67.4922 54.2559C68.1602 54.6426 68.4062 55.5039 68.002 56.1719ZM67.4922 25.7441C66.8242 26.1309 65.9629 25.9023 65.5762 25.2344C65.1895 24.5664 65.418 23.7051 66.0859 23.3184C66.7539 22.9316 67.6152 23.1602 68.002 23.8281C68.4062 24.4961 68.1602 25.3574 67.4922 25.7441ZM70.9375 41.4062C70.1641 41.4062 69.5312 40.7734 69.5312 40C69.5312 39.2266 70.1641 38.5938 70.9375 38.5938C71.7109 38.5938 72.3438 39.2266 72.3438 40C72.3438 40.7734 71.7109 41.4062 70.9375 41.4062Z" fill="url(#paint0_linear_5886_52109)"/>
<defs>
<linearGradient id="paint0_linear_5886_52109" x1="40" y1="0.625" x2="40" y2="79.375" gradientUnits="userSpaceOnUse">
<stop stop-color="#BDF66E"/>
<stop offset="1" stop-color="#8DC540"/>
</linearGradient>
</defs>
</svg>
