<svg width="24" height="27" viewBox="0 0 24 27" fill="none" xmlns="http://www.w3.org/2000/svg">
<path fillRule="evenodd" clipRule="evenodd" d="M12.1805 17.5532H11.7163C8.52616 17.5532 5.94036 14.9997 5.94036 11.8507V5.71392C5.94036 2.56365 8.52616 0.0101634 11.7163 0.0101634H12.1805C14.828 0.0101634 17.0589 1.76751 17.7417 4.16609C17.8356 4.49495 17.5874 4.82128 17.2428 4.82128H15.7397C15.2858 4.82128 14.9167 5.18443 14.9167 5.63266V5.63393C14.9167 6.08342 15.2858 6.44657 15.7397 6.44657H17.1258C17.5848 6.44657 17.9577 6.81353 17.9577 7.26684C17.9577 7.72014 17.5848 8.0871 17.1258 8.0871H15.7397C15.2858 8.0871 14.9167 8.45152 14.9167 8.90102C14.9167 9.34924 15.2858 9.71366 15.7397 9.71366H17.1258C17.5848 9.71366 17.9577 10.0806 17.9577 10.5352C17.9577 10.9872 17.5848 11.3542 17.1258 11.3542H15.7397C15.2858 11.3542 14.9167 11.7186 14.9167 12.1681C14.9167 12.6163 15.2858 12.9795 15.7397 12.9795H17.1695C17.5218 12.9795 17.7739 13.3198 17.6633 13.6499C16.9008 15.9177 14.7354 17.5532 12.1805 17.5532ZM20.6594 11.6681C20.6594 10.966 21.2355 10.3984 21.9453 10.3984C22.655 10.3984 23.2311 10.966 23.2311 11.6681C23.2311 17.3808 18.8516 22.0979 13.235 22.7316V25.2876C13.235 25.9885 12.659 26.5573 11.9492 26.5573C11.2381 26.5573 10.6634 25.9885 10.6634 25.2876V22.7316C5.04559 22.0979 0.666048 17.3808 0.666048 11.6681C0.666048 10.966 1.2421 10.3984 1.95188 10.3984C2.66166 10.3984 3.23771 10.966 3.23771 11.6681C3.23771 16.4107 7.14535 20.2695 11.9492 20.2695C16.7518 20.2695 20.6594 16.4107 20.6594 11.6681Z" fill="#8DC540"/>
</svg>
