<svg width="14" height="16" viewBox="0 0 14 16" fill="none" xmlns="http://www.w3.org/2000/svg">
<path fillRule="evenodd" clipRule="evenodd" d="M7.47707 10.1059H7.20967C5.37194 10.1059 3.88235 8.63491 3.88235 6.82088V3.28573C3.88235 1.47097 5.37194 0 7.20967 0H7.47707C9.00221 0 10.2874 1.01234 10.6807 2.39408C10.7348 2.58352 10.5918 2.77151 10.3933 2.77151H9.52738C9.26591 2.77151 9.05332 2.98071 9.05332 3.23891V3.23965C9.05332 3.49858 9.26591 3.70778 9.52738 3.70778H10.3259C10.5903 3.70778 10.8051 3.91917 10.8051 4.18031C10.8051 4.44144 10.5903 4.65283 10.3259 4.65283H9.52738C9.26591 4.65283 9.05332 4.86276 9.05332 5.1217C9.05332 5.3799 9.26591 5.58983 9.52738 5.58983H10.3259C10.5903 5.58983 10.8051 5.80123 10.8051 6.06309C10.8051 6.32349 10.5903 6.53488 10.3259 6.53488H9.52738C9.26591 6.53488 9.05332 6.74481 9.05332 7.00375C9.05332 7.26196 9.26591 7.47115 9.52738 7.47115H10.3511C10.554 7.47115 10.6992 7.66719 10.6355 7.85737C10.1963 9.16376 8.94888 10.1059 7.47707 10.1059ZM12.3615 6.7157C12.3615 6.3112 12.6933 5.98424 13.1022 5.98424C13.5111 5.98424 13.8429 6.3112 13.8429 6.7157C13.8429 10.0065 11.32 12.7239 8.08454 13.0889V14.5614C8.08454 14.9651 7.75269 15.2928 7.34382 15.2928C6.9342 15.2928 6.6031 14.9651 6.6031 14.5614V13.0889C3.36689 12.7239 0.843994 10.0065 0.843994 6.7157C0.843994 6.3112 1.17584 5.98424 1.58471 5.98424C1.99359 5.98424 2.32543 6.3112 2.32543 6.7157C2.32543 9.44771 4.57648 11.6706 7.34382 11.6706C10.1104 11.6706 12.3615 9.44771 12.3615 6.7157Z" fill="#252525"/>
</svg>
