<?xml version="1.0" encoding="utf-8"?>
<!-- Generator: Adobe Illustrator 26.5.0, SVG Export Plug-In . SVG Version: 6.00 Build 0)  -->
<svg version="1.1" id="Layer_1" xmlns="http://www.w3.org/2000/svg" xmlns:xlink="http://www.w3.org/1999/xlink" x="0px" y="0px"
	 viewBox="0 0 73 73.2" style="enable-background:new 0 0 73 73.2;" xml:space="preserve">
<style type="text/css">
	.st0{fill:#C4C4C4;}
	.st1{fill:#FFFFFF;}
	.st2{fillRule:evenodd;clipRule:evenodd;fill:#FFFFFF;}
	.st3{fillRule:evenodd;clipRule:evenodd;}
	.st4{fill:#F5F5F5;}
	.st5{fill:none;stroke:#252525;stroke-width:2;stroke-linecap:round;stroke-linejoin:round;}
</style>
<polygon class="st0" points="68.5,29 67.8,29.7 67.8,29.7 "/>
<polygon class="st0" points="66,26.5 66.7,25.8 66.7,25.8 "/>
<polygon class="st0" points="71.6,36.4 70.6,36.4 70.6,36.5 "/>
<polygon class="st0" points="68.6,43.9 67.9,43.2 67.9,43.2 67.9,43.2 "/>
<polygon class="st0" points="68.5,44 67.8,43.3 67.8,43.3 "/>
<polygon class="st0" points="68.5,44 69.2,44.7 69.2,44.7 "/>
<path class="st0" d="M66,46.5l0.7,0.7L66,46.5z"/>
<path class="st0" d="M46.6,65.9l0.7,0.7L46.6,65.9z"/>
<polygon class="st0" points="44.1,68.4 43.4,67.7 43.4,67.7 "/>
<polygon class="st0" points="29.2,68.4 28.5,69.1 28.5,69.2 "/>
<polygon class="st0" points="26.6,65.9 27.3,65.2 27.3,65.2 "/>
<polygon class="st0" points="7.2,46.5 7.9,45.8 7.9,45.8 7.9,45.7 "/>
<polygon class="st0" points="4.7,44 4,44.7 4,44.7 "/>
<polygon class="st0" points="4.7,29.1 4,28.4 4,28.4 "/>
<polygon class="st0" points="7.2,26.5 6.5,25.8 6.5,25.8 "/>
<path class="st0" d="M26.6,7.1l-0.7-0.7L26.6,7.1z"/>
<polygon class="st0" points="29.1,4.6 29.8,5.3 29.8,5.3 "/>
<polygon class="st0" points="44.1,4.6 44.8,3.8 44.8,3.8 "/>
<polygon class="st0" points="46.6,7.1 47.3,6.4 47.3,6.4 "/>
<polygon class="st0" points="29.8,47.6 29.1,46.9 29.1,46.9 29,47 "/>
<polygon class="st0" points="47.8,29.7 48.5,30.4 48.5,30.4 "/>
<polygon class="st0" points="47.8,25.3 48.5,24.6 48.5,24.6 "/>
<polygon class="st0" points="43.5,25.3 42.8,24.6 42.8,24.6 "/>
<path class="st0" d="M25.5,43.3l-0.7-0.7L25.5,43.3z"/>
<polygon class="st0" points="25.5,47.6 26.2,47 26.2,46.9 26.2,46.9 "/>
<rect x="66.3" y="26" transform="matrix(0.707 -0.7072 0.7072 0.707 7.832943e-02 55.7129)" class="st0" width="2" height="3.6"/>
<path class="st0" d="M72.6,36.4c0-3.1-1.2-6-3.4-8.1l-1.4,1.4c1.8,1.8,2.8,4.2,2.8,6.7H72.6z"/>
<path class="st0" d="M69.3,44.6c2.1-2.2,3.3-5.1,3.3-8.2l-2,0c0,2.5-0.9,4.9-2.7,6.7L69.3,44.6z"/>
<path class="st0" d="M69.2,44.7c0,0,0.1-0.1,0.1-0.1l-1.5-1.3c0,0,0,0,0,0c0,0,0,0,0,0L69.2,44.7z"/>
<path class="st0" d="M69.2,44.7C69.2,44.7,69.2,44.7,69.2,44.7l-1.4-1.5c0,0,0,0,0,0L69.2,44.7z"/>
<rect x="65.5" y="44.2" transform="matrix(0.7072 -0.707 0.707 0.7072 -12.2987 60.7954)" class="st0" width="3.5" height="2"/>
<path class="st0" d="M65.5,50.2c0-1.1,0.5-2.2,1.2-3l-1.4-1.4c-1.2,1.2-1.8,2.7-1.8,4.4H65.5z"/>
<rect x="63.5" y="50.2" class="st0" width="2" height="3.6"/>
<path class="st0" d="M53.9,65.3c6.4,0,11.5-5.2,11.5-11.5h-2c0,5.3-4.3,9.5-9.5,9.5V65.3z"/>
<rect x="50.3" y="63.3" class="st0" width="3.6" height="2"/>
<path class="st0" d="M47.3,66.6c0.8-0.8,1.9-1.2,3-1.2v-2c-1.7,0-3.3,0.7-4.4,1.8L47.3,66.6z"/>
<rect x="43.6" y="66.1" transform="matrix(0.7072 -0.707 0.707 0.7072 -34.1915 51.7205)" class="st0" width="3.6" height="2"/>
<path class="st0" d="M36.6,72.5c2.9,0,5.9-1.1,8.2-3.4l-1.4-1.4c-1.9,1.9-4.3,2.8-6.8,2.8V72.5z"/>
<path class="st0" d="M28.5,69.2c2.3,2.2,5.2,3.3,8.2,3.3v-2c-2.4,0-4.9-0.9-6.8-2.8L28.5,69.2z"/>
<rect x="26.9" y="65.4" transform="matrix(0.7075 -0.7067 0.7067 0.7075 -39.3067 39.3624)" class="st0" width="2" height="3.6"/>
<path class="st0" d="M22.9,65.3c1.1,0,2.2,0.5,3,1.2l1.4-1.4c-1.2-1.2-2.8-1.8-4.4-1.8V65.3z"/>
<rect x="19.3" y="63.3" class="st0" width="3.6" height="2"/>
<path class="st0" d="M7.8,53.8c0,6.4,5.2,11.5,11.5,11.5v-2c-5.3,0-9.5-4.3-9.5-9.5H7.8z"/>
<rect x="7.8" y="50.2" class="st0" width="2" height="3.6"/>
<path class="st0" d="M6.5,47.1c0.8,0.8,1.3,1.9,1.3,3.1h2c0-1.7-0.7-3.3-1.8-4.4L6.5,47.1z"/>
<rect x="5" y="43.4" transform="matrix(0.702 -0.7122 0.7122 0.702 -30.424 17.715)" class="st0" width="2" height="3.5"/>
<path class="st0" d="M4,28.4c-4.5,4.5-4.4,11.8,0,16.3l1.4-1.4c-3.7-3.7-3.7-9.8,0-13.5L4,28.4z"/>
<rect x="4.1" y="26.8" transform="matrix(0.7067 -0.7075 0.7075 0.7067 -17.9127 12.3484)" class="st0" width="3.6" height="2"/>
<path class="st0" d="M7.8,22.8c0,1.2-0.5,2.2-1.2,3l1.4,1.4c1.2-1.2,1.8-2.8,1.8-4.5H7.8z"/>
<rect x="7.8" y="19.2" class="st0" width="2" height="3.6"/>
<path class="st0" d="M19.3,7.7c-6.4,0-11.5,5.2-11.5,11.5h2c0-5.3,4.3-9.5,9.5-9.5V7.7z"/>
<rect x="19.3" y="7.7" class="st0" width="3.6" height="2"/>
<path class="st0" d="M25.9,6.4c-0.8,0.8-1.9,1.3-3,1.3v2c1.7,0,3.3-0.7,4.4-1.8L25.9,6.4z"/>
<rect x="26.1" y="4.8" transform="matrix(0.7072 -0.707 0.707 0.7072 4.0267 21.4208)" class="st0" width="3.6" height="2"/>
<path class="st0" d="M44.8,3.8c-4.5-4.5-11.8-4.5-16.3,0l1.4,1.4c3.7-3.7,9.8-3.7,13.5,0L44.8,3.8z"/>
<rect x="44.3" y="4" transform="matrix(0.7065 -0.7077 0.7077 0.7065 9.1785 33.7965)" class="st0" width="2" height="3.6"/>
<path class="st0" d="M50.3,7.7c-1.1,0-2.2-0.5-3-1.3l-1.4,1.4c1.2,1.2,2.7,1.8,4.4,1.8V7.7z"/>
<rect x="50.3" y="7.7" class="st0" width="3.6" height="2"/>
<path class="st0" d="M65.5,19.2c0-6.4-5.2-11.5-11.5-11.5v2c5.3,0,9.5,4.3,9.5,9.5H65.5z"/>
<rect x="63.5" y="19.2" class="st0" width="2" height="3.6"/>
<path class="st0" d="M66.7,25.8c-0.8-0.8-1.2-1.9-1.2-3h-2c0,1.7,0.7,3.2,1.8,4.4L66.7,25.8z"/>
<path class="st2" d="M65.9,26.6l2.5,2.5c2,2,3.1,4.6,3.1,7.4c0,2.8-1.1,5.5-3,7.5c0,0,0,0-0.1,0.1c0,0,0,0,0,0l-2.5,2.5
	c-1,1-1.5,2.3-1.5,3.7v3.6c0,5.8-4.7,10.5-10.5,10.5h-3.6c-1.4,0-2.7,0.6-3.7,1.5L44,68.5c-2.1,2.1-4.8,3.1-7.5,3.1s-5.4-1-7.5-3
	L26.5,66c-1-1-2.3-1.5-3.7-1.5h-3.6c-5.8,0-10.5-4.7-10.5-10.5v-3.6c0-1.4-0.6-2.7-1.5-3.7l-2.5-2.5c-4.1-4.1-4.1-10.8,0-14.9
	l2.6-2.6c1-1,1.5-2.3,1.5-3.7v-3.6c0-5.8,4.7-10.5,10.5-10.5h3.6c1.4,0,2.7-0.6,3.7-1.5L29,4.7c4.1-4.1,10.8-4.1,14.9,0l2.6,2.6
	c1,1,2.3,1.5,3.7,1.5h3.6c5.8,0,10.5,4.7,10.5,10.5v3.6C64.4,24.3,64.9,25.7,65.9,26.6z"/>
<path class="st5" d="M45.8,36.3h-18"/>
<path class="st5" d="M38.6,29l7.3,7.2l-7.3,7.2"/>
</svg>
