<svg width="73" height="74" viewBox="0 0 73 74" fill="none" xmlns="http://www.w3.org/2000/svg">
<path d="M4.5002 29L5.2002 29.7L4.5002 29Z" fill="#C4C4C4"/>
<path d="M7 26.4998L6.3 25.7998L7 26.4998Z" fill="#C4C4C4"/>
<path d="M1.3999 36.4004H2.3999V36.5004L1.3999 36.4004Z" fill="#C4C4C4"/>
<path d="M4.4001 43.9002L5.1001 43.2002L4.4001 43.9002Z" fill="#C4C4C4"/>
<path d="M4.5002 43.9998L5.2002 43.2998L4.5002 43.9998Z" fill="#C4C4C4"/>
<path d="M4.5 44L3.8 44.7L4.5 44Z" fill="#C4C4C4"/>
<path d="M28.9001 68.4002L29.6001 67.7002L28.9001 68.4002Z" fill="#C4C4C4"/>
<path d="M43.8 68.4004L44.5 69.1004V69.2004L43.8 68.4004Z" fill="#C4C4C4"/>
<path d="M46.3999 65.9002L45.6999 65.2002L46.3999 65.9002Z" fill="#C4C4C4"/>
<path d="M65.7998 46.5002L65.0998 45.8002V45.7002L65.7998 46.5002Z" fill="#C4C4C4"/>
<path d="M68.3 44L69 44.7L68.3 44Z" fill="#C4C4C4"/>
<path d="M68.3 29.1004L69 28.4004L68.3 29.1004Z" fill="#C4C4C4"/>
<path d="M65.8 26.4998L66.5 25.7998L65.8 26.4998Z" fill="#C4C4C4"/>
<path d="M43.8999 4.59961L43.1999 5.29961L43.8999 4.59961Z" fill="#C4C4C4"/>
<path d="M28.8999 4.5998L28.1999 3.7998L28.8999 4.5998Z" fill="#C4C4C4"/>
<path d="M26.3999 7.10039L25.6999 6.40039L26.3999 7.10039Z" fill="#C4C4C4"/>
<path d="M43.2 47.6004L43.9 46.9004L44 47.0004L43.2 47.6004Z" fill="#C4C4C4"/>
<path d="M25.2002 29.7002L24.5002 30.4002L25.2002 29.7002Z" fill="#C4C4C4"/>
<path d="M25.2002 25.2996L24.5002 24.5996L25.2002 25.2996Z" fill="#C4C4C4"/>
<path d="M29.5002 25.2996L30.2002 24.5996L29.5002 25.2996Z" fill="#C4C4C4"/>
<path d="M47.5 47.6004L46.8 47.0004V46.9004L47.5 47.6004Z" fill="#C4C4C4"/>
<path d="M6.24616 25.7936L7.66016 27.208L5.11424 29.7532L3.70024 28.3388L6.24616 25.7936Z" fill="#C4C4C4"/>
<path d="M0.4002 36.3998C0.4002 33.2998 1.6002 30.3998 3.8002 28.2998L5.2002 29.6998C3.4002 31.4998 2.4002 33.8998 2.4002 36.3998H0.4002Z" fill="#C4C4C4"/>
<path d="M3.7001 44.6004C1.6001 42.4004 0.400101 39.5004 0.400101 36.4004H2.4001C2.4001 38.9004 3.3001 41.3004 5.1001 43.1004L3.7001 44.6004Z" fill="#C4C4C4"/>
<path d="M3.8002 44.6998L3.7002 44.5998L5.2002 43.2998L3.8002 44.6998Z" fill="#C4C4C4"/>
<path d="M5.25234 43.2706L7.72754 45.7451L6.31354 47.1595L3.83834 44.685L5.25234 43.2706Z" fill="#C4C4C4"/>
<path d="M7.5 50.1998C7.5 49.0998 7 47.9998 6.3 47.1998L7.7 45.7998C8.9 46.9998 9.5 48.4998 9.5 50.1998H7.5Z" fill="#C4C4C4"/>
<path d="M7.5 50.2002H9.5V53.8002H7.5V50.2002Z" fill="#C4C4C4"/>
<path d="M19.1001 65.2998C12.7001 65.2998 7.6001 60.0998 7.6001 53.7998H9.6001C9.6001 59.0998 13.9001 63.2998 19.1001 63.2998V65.2998Z" fill="#C4C4C4"/>
<path d="M19.1002 63.2998H22.7002V65.2998H19.1002V63.2998Z" fill="#C4C4C4"/>
<path d="M25.7001 66.6004C24.9001 65.8004 23.8001 65.4004 22.7001 65.4004V63.4004C24.4001 63.4004 26.0001 64.1004 27.1001 65.2004L25.7001 66.6004Z" fill="#C4C4C4"/>
<path d="M27.0791 65.0964L29.625 67.6416L28.211 69.056L25.6651 66.5108L27.0791 65.0964Z" fill="#C4C4C4"/>
<path d="M36.3999 72.5002C33.4999 72.5002 30.4999 71.4002 28.1999 69.1002L29.5999 67.7002C31.4999 69.6002 33.8999 70.5002 36.3999 70.5002V72.5002Z" fill="#C4C4C4"/>
<path d="M44.5 69.2002C42.2 71.4002 39.3 72.5002 36.3 72.5002V70.5002C38.7 70.5002 41.2 69.6002 43.1 67.7002L44.5 69.2002Z" fill="#C4C4C4"/>
<path d="M45.6416 65.2096L47.0566 66.623L44.5125 69.17L43.0975 67.7566L45.6416 65.2096Z" fill="#C4C4C4"/>
<path d="M50.1001 65.2998C49.0001 65.2998 47.9001 65.7998 47.1001 66.4998L45.7001 65.0998C46.9001 63.8998 48.5001 63.2998 50.1001 63.2998V65.2998Z" fill="#C4C4C4"/>
<path d="M50.1002 63.2998H53.7002V65.2998H50.1002V63.2998Z" fill="#C4C4C4"/>
<path d="M65.2002 53.7998C65.2002 60.1998 60.0002 65.2998 53.7002 65.2998V63.2998C59.0002 63.2998 63.2002 58.9998 63.2002 53.7998H65.2002Z" fill="#C4C4C4"/>
<path d="M63.2002 50.2002H65.2002V53.8002H63.2002V50.2002Z" fill="#C4C4C4"/>
<path d="M66.5 47.0998C65.7 47.8998 65.2 48.9998 65.2 50.1998H63.2C63.2 48.4998 63.9 46.8998 65 45.7998L66.5 47.0998Z" fill="#C4C4C4"/>
<path d="M67.6004 43.1967L69.0044 44.6211L66.5117 47.0781L65.1077 45.6537L67.6004 43.1967Z" fill="#C4C4C4"/>
<path d="M68.9998 28.4004C73.4998 32.9004 73.3998 40.2004 68.9998 44.7004L67.5998 43.3004C71.2998 39.6004 71.2998 33.5004 67.5998 29.8004L68.9998 28.4004Z" fill="#C4C4C4"/>
<path d="M66.5101 25.8407L69.0542 28.3877L67.6392 29.8011L65.0951 27.2541L66.5101 25.8407Z" fill="#C4C4C4"/>
<path d="M65.1999 22.8002C65.1999 24.0002 65.6999 25.0002 66.3999 25.8002L64.9999 27.2002C63.7999 26.0002 63.1999 24.4002 63.1999 22.7002H65.1999V22.8002Z" fill="#C4C4C4"/>
<path d="M63.2002 19.2002H65.2002V22.8002H63.2002V19.2002Z" fill="#C4C4C4"/>
<path d="M53.7002 7.7002C60.1002 7.7002 65.2002 12.9002 65.2002 19.2002H63.2002C63.2002 13.9002 58.9002 9.7002 53.7002 9.7002V7.7002Z" fill="#C4C4C4"/>
<path d="M50.1002 7.7002H53.7002V9.7002H50.1002V7.7002Z" fill="#C4C4C4"/>
<path d="M47.1001 6.40039C47.9001 7.20039 49.0001 7.70039 50.1001 7.70039V9.70039C48.4001 9.70039 46.8001 9.00039 45.7001 7.90039L47.1001 6.40039Z" fill="#C4C4C4"/>
<path d="M44.5757 3.8171L47.1216 6.3623L45.7076 7.7767L43.1617 5.2315L44.5757 3.8171Z" fill="#C4C4C4"/>
<path d="M28.2 3.7998C32.7 -0.700195 40 -0.700195 44.5 3.7998L43.1 5.1998C39.4 1.4998 33.3 1.4998 29.6 5.1998L28.2 3.7998Z" fill="#C4C4C4"/>
<path d="M28.2799 3.85608L29.6929 5.27148L27.1452 7.81488L25.7322 6.39948L28.2799 3.85608Z" fill="#C4C4C4"/>
<path d="M22.7001 7.70039C23.8001 7.70039 24.9001 7.20039 25.7001 6.40039L27.1001 7.80039C25.9001 9.00039 24.4001 9.60039 22.7001 9.60039V7.70039Z" fill="#C4C4C4"/>
<path d="M19.1002 7.7002H22.7002V9.7002H19.1002V7.7002Z" fill="#C4C4C4"/>
<path d="M7.5 19.2002C7.5 12.8002 12.7 7.7002 19 7.7002V9.7002C13.7 9.7002 9.5 14.0002 9.5 19.2002H7.5Z" fill="#C4C4C4"/>
<path d="M7.5 19.2002H9.5V22.8002H7.5V19.2002Z" fill="#C4C4C4"/>
<path d="M6.3 25.7998C7.1 24.9998 7.5 23.8998 7.5 22.7998H9.5C9.5 24.4998 8.8 25.9998 7.7 27.1998L6.3 25.7998Z" fill="#C4C4C4"/>
<path fillRule="evenodd" clipRule="evenodd" d="M7.1 26.6L4.6 29.1C2.6 31.1 1.5 33.7 1.5 36.5C1.5 39.3 2.6 42 4.5 44C4.5 44 4.5 44 4.6 44.1L7.1 46.6C8.1 47.6 8.6 48.9 8.6 50.3V53.9C8.6 59.7 13.3 64.4 19.1 64.4H22.7C24.1 64.4 25.4 65 26.4 65.9L29 68.5C31.1 70.6 33.8 71.6 36.5 71.6C39.2 71.6 41.9 70.6 44 68.6L46.5 66C47.5 65 48.8 64.5 50.2 64.5H53.8C59.6 64.5 64.3 59.8 64.3 54V50.4C64.3 49 64.9 47.7 65.8 46.7L68.3 44.2C72.4 40.1 72.4 33.4 68.3 29.3L65.7 26.7C64.7 25.7 64.2 24.4 64.2 23V19.4C64.2 13.6 59.5 8.9 53.7 8.9H50.1C48.7 8.9 47.4 8.3 46.4 7.4L44 4.7C39.9 0.6 33.2 0.6 29.1 4.7L26.5 7.3C25.5 8.3 24.2 8.8 22.8 8.8H19.2C13.4 8.8 8.7 13.5 8.7 19.3V22.9C8.6 24.3 8.1 25.7 7.1 26.6Z" fill="white"/>
<path d="M27.2002 36.2998H45.2002" stroke="#252525" stroke-width="2" stroke-linecap="round" stroke-linejoin="round"/>
<path d="M34.3999 29L27.0999 36.2L34.3999 43.4" stroke="#252525" stroke-width="2" stroke-linecap="round" stroke-linejoin="round"/>
</svg>
