<svg width="33" height="38" viewBox="0 0 33 38" fill="none" xmlns="http://www.w3.org/2000/svg">
<path d="M31.0862 16.6399C31.0862 24.8602 24.3901 31.5331 16.1188 31.5331C7.84746 31.5331 1.15134 24.8602 1.15134 16.6399C1.15134 8.41969 7.84746 1.7468 16.1188 1.7468C24.3901 1.7468 31.0862 8.41969 31.0862 16.6399Z" stroke="#252525" stroke-width="2.30268"/>
<path d="M31.0862 16.6399C31.0862 24.8602 24.3901 31.5331 16.1188 31.5331C7.84746 31.5331 1.15134 24.8602 1.15134 16.6399C1.15134 8.41969 7.84746 1.7468 16.1188 1.7468C24.3901 1.7468 31.0862 8.41969 31.0862 16.6399Z" stroke="#252525" stroke-width="2.30268"/>
<path d="M8.44382 17.6124H23.795C24.4986 17.6124 25.0743 16.8831 25.0743 15.9917C25.0743 15.1004 24.4986 14.3711 23.795 14.3711H8.44382C7.74022 14.3711 7.16455 15.1004 7.16455 15.9917C7.16455 16.8831 7.74022 17.6124 8.44382 17.6124Z" fill="#252525"/>
<path d="M8.44382 22.4743H23.795C24.4986 22.4743 25.0743 21.745 25.0743 20.8536C25.0743 19.9623 24.4986 19.233 23.795 19.233H8.44382C7.74022 19.233 7.16455 19.9623 7.16455 20.8536C7.16455 21.745 7.74022 22.4743 8.44382 22.4743Z" fill="#252525"/>
<path d="M7.16455 11.1297C7.16455 12.0211 7.74022 12.7504 8.44382 12.7504H23.795C24.4986 12.7504 25.0743 12.0211 25.0743 11.1297C25.0743 10.2384 24.4986 9.50906 23.795 9.50906H8.44382C7.74022 9.50906 7.16455 10.2384 7.16455 11.1297Z" fill="#252525"/>
<ellipse cx="17.0141" cy="31.793" rx="2.68646" ry="2.67408" fill="white"/>
<path fillRule="evenodd" clipRule="evenodd" d="M17.8111 27.2382L20.3991 29.8143C21.411 30.8215 21.3781 32.2031 20.3215 33.2549L17.8825 35.6827C16.8288 36.7315 15.4411 36.7639 14.4292 35.7567L11.8412 33.1806C10.8293 32.1734 10.8589 30.7891 11.9126 29.7403L14.3516 27.3125C15.4082 26.2607 16.7992 26.231 17.8111 27.2382ZM16.1222 33.2818C16.3249 33.2821 16.4891 33.1187 16.4891 32.9166V31.8589L17.552 31.8586C17.7547 31.8589 17.9218 31.6925 17.9218 31.4904C17.9221 31.2881 17.758 31.1247 17.5517 31.122L16.4923 31.1247L16.492 30.0672C16.4894 29.8619 16.3252 29.6985 16.1219 29.6988C15.9189 29.6988 15.7518 29.8652 15.7521 30.0669L15.7518 31.125L14.6921 31.122C14.4862 31.125 14.322 31.2884 14.3223 31.4901C14.3223 31.5912 14.3638 31.6865 14.4294 31.7519C14.4981 31.8202 14.5909 31.8586 14.6924 31.8586L15.7518 31.8618L15.7551 32.9163C15.7518 33.0206 15.7936 33.1097 15.8592 33.1751C15.9279 33.2434 16.0207 33.2818 16.1222 33.2818Z" fill="#252525"/>
</svg>
