<svg width="33" height="30" viewBox="0 0 33 30" fill="none" xmlns="http://www.w3.org/2000/svg">
<path d="M16.0502 29.7282C12.3662 27.5065 8.94162 24.8868 5.83902 21.917C3.6487 19.7966 1.97593 17.2076 0.948534 14.3477C-0.887189 8.77032 1.24971 2.39617 7.21581 0.503843C10.3648 -0.461738 13.7897 0.131009 16.4231 2.09738C19.0575 0.133208 22.4812 -0.459346 25.6304 0.503843C31.5965 2.39617 33.7478 8.77032 31.912 14.3477C30.893 17.2049 29.2302 19.7937 27.0502 21.917C23.9448 24.8835 20.5206 27.503 16.839 29.7282L16.4375 29.9843L16.0502 29.7282Z" fill="#D92127"/>
<path d="M29.0641 11.5615C28.7558 11.5392 28.4686 11.3658 28.2699 11.082C28.0712 10.7982 27.9784 10.4289 28.0133 10.0606C28.0467 8.84766 27.4332 7.74358 26.4871 7.31401C25.8872 7.12978 25.5239 6.39886 25.674 5.67805C25.8164 4.96882 26.4067 4.52783 27 4.68746C27.0749 4.70144 27.147 4.73198 27.2127 4.77752C29.1096 5.59876 30.3378 7.80904 30.2401 10.2257C30.237 10.592 30.11 10.9411 29.8883 11.1929C29.6666 11.4448 29.3691 11.5778 29.0641 11.5615Z" fill="white"/>
</svg>
