<svg width="14" height="13" viewBox="0 0 14 13" fill="none" xmlns="http://www.w3.org/2000/svg">
<path d="M6.83538 12.8888C5.2355 11.9239 3.74827 10.7863 2.40089 9.49656C1.44968 8.57573 0.723238 7.45137 0.277063 6.20939C-0.520149 3.78726 0.407856 1.01912 2.99879 0.197324C4.36634 -0.222005 5.85366 0.035411 6.99731 0.889361C8.14137 0.036366 9.62821 -0.220966 10.9958 0.197324C13.5868 1.01912 14.521 3.78726 13.7238 6.20939C13.2812 7.4502 12.5591 8.57446 11.6124 9.49656C10.2638 10.7849 8.77674 11.9224 7.17793 12.8888L7.00354 13L6.83538 12.8888Z" fill="#C4C4C4"/>
<path d="M12.487 4.99942C12.353 4.98972 12.2283 4.91442 12.142 4.79117C12.0557 4.66793 12.0155 4.50755 12.0306 4.34762C12.0451 3.82085 11.7787 3.34138 11.3678 3.15483C11.1073 3.07482 10.9495 2.7574 11.0147 2.44437C11.0765 2.13636 11.3329 1.94485 11.5906 2.01418C11.6231 2.02025 11.6544 2.03351 11.6829 2.05329C12.5067 2.40993 13.0401 3.36981 12.9976 4.41932C12.9963 4.57839 12.9412 4.72998 12.8449 4.83936C12.7486 4.94873 12.6194 5.0065 12.487 4.99942Z" fill="white"/>
</svg>
