<svg width="31" height="31" viewBox="0 0 31 31" fill="none" xmlns="http://www.w3.org/2000/svg">
<path d="M24.747 0.532288C25.7392 0.531878 26.7162 0.780397 27.5915 1.25582C28.4667 1.73125 29.2131 2.4189 29.7646 3.25785C30.316 4.0968 30.6555 5.06113 30.7529 6.06541C30.8503 7.06969 30.7026 8.0829 30.3229 9.01525C29.9433 9.94761 29.3434 10.7703 28.5763 11.4105C27.8093 12.0507 26.8989 12.4886 25.9257 12.6853C24.9525 12.8821 23.9466 12.8317 22.9971 12.5385C22.0477 12.2454 21.184 11.7186 20.4826 11.0048C20.429 10.9503 20.3778 10.8958 20.3267 10.8389L12.7428 14.0589C12.9168 14.7839 12.9605 15.5349 12.8718 16.2757L20.58 19.9292C21.6462 18.8997 23.0467 18.3037 24.5161 18.2542C25.9856 18.2047 27.4218 18.705 28.5527 19.6605C29.6836 20.616 30.4307 21.9602 30.6522 23.4384C30.8738 24.9166 30.5546 26.4261 29.755 27.681C28.9554 28.9358 27.731 29.8487 26.3138 30.2467C24.8966 30.6448 23.3851 30.5003 22.0657 29.8406C20.7462 29.181 19.7105 28.052 19.1548 26.6677C18.5991 25.2833 18.562 23.7397 19.0505 22.3294L11.8952 18.9261C11.2041 19.9779 10.2101 20.7866 9.04949 21.2416C7.88887 21.6967 6.61833 21.7757 5.41185 21.4678C4.20538 21.16 3.12195 20.4804 2.30995 19.5221C1.49794 18.5638 0.99705 17.3736 0.87587 16.1146C0.754689 14.8555 1.01914 13.5892 1.63302 12.4889C2.24689 11.3886 3.18017 10.5082 4.30505 9.96832C5.42993 9.4284 6.69142 9.25532 7.91676 9.47279C9.14211 9.69026 10.2714 10.2876 11.15 11.1831C11.2571 11.2921 11.3619 11.4061 11.4593 11.5225L18.9458 8.34705C18.6904 7.43427 18.6467 6.47368 18.818 5.54081C18.9894 4.60794 19.3712 3.72821 19.9335 2.97082C20.4957 2.21342 21.2231 1.599 22.0583 1.17588C22.8935 0.752746 23.8139 0.532443 24.747 0.532288Z" fill="#252525"/>
</svg>
