<svg width="18" height="18" viewBox="0 0 18 18" fill="none" xmlns="http://www.w3.org/2000/svg">
<path fillRule="evenodd" clipRule="evenodd" d="M10.7678 8.36093H13.0743C13.424 8.36093 13.6988 8.07178 13.6988 7.72311C13.6988 7.36593 13.424 7.08529 13.0743 7.08529H10.7678C10.418 7.08529 10.1432 7.36593 10.1432 7.72311C10.1432 8.07178 10.418 8.36093 10.7678 8.36093ZM15.8138 3.93957C16.3218 3.93957 16.6548 4.11816 16.9879 4.50935C17.321 4.90055 17.3793 5.46183 17.3043 5.97123L16.5133 11.55C16.3634 12.6224 15.4641 13.4124 14.4066 13.4124H5.32199C4.21452 13.4124 3.29857 12.5459 3.20697 11.4233L2.4409 2.15283L1.18355 1.93172C0.850476 1.87219 0.617324 1.54052 0.675612 1.20035C0.7339 0.852527 1.05865 0.622063 1.40005 0.673938L3.386 0.979241C3.66911 1.03112 3.87728 1.26838 3.90226 1.55753L4.06047 3.46248C4.08545 3.73547 4.30195 3.93957 4.56841 3.93957H15.8138ZM5.1886 14.7565C4.48914 14.7565 3.92292 15.3348 3.92292 16.0492C3.92292 16.755 4.48914 17.3333 5.1886 17.3333C5.87973 17.3333 6.44595 16.755 6.44595 16.0492C6.44595 15.3348 5.87973 14.7565 5.1886 14.7565ZM14.5563 14.7565C13.8568 14.7565 13.2906 15.3348 13.2906 16.0492C13.2906 16.755 13.8568 17.3333 14.5563 17.3333C15.2474 17.3333 15.8137 16.755 15.8137 16.0492C15.8137 15.3348 15.2474 14.7565 14.5563 14.7565Z" fill="#8DC540"/>
</svg>
