<svg width="18" height="18" viewBox="0 0 18 18" fill="none" xmlns="http://www.w3.org/2000/svg">
<path fillRule="evenodd" clipRule="evenodd" d="M2.78325 0.666656H5.59992C6.77492 0.666656 7.71659 1.62499 7.71659 2.80082V5.64166C7.71659 6.82499 6.77492 7.77499 5.59992 7.77499H2.78325C1.61659 7.77499 0.666588 6.82499 0.666588 5.64166V2.80082C0.666588 1.62499 1.61659 0.666656 2.78325 0.666656ZM2.78325 10.2247H5.59992C6.77492 10.2247 7.71659 11.1756 7.71659 12.3589V15.1997C7.71659 16.3747 6.77492 17.3331 5.59992 17.3331H2.78325C1.61659 17.3331 0.666588 16.3747 0.666588 15.1997V12.3589C0.666588 11.1756 1.61659 10.2247 2.78325 10.2247ZM15.2167 0.666656H12.4C11.225 0.666656 10.2833 1.62499 10.2833 2.80082V5.64166C10.2833 6.82499 11.225 7.77499 12.4 7.77499H15.2167C16.3833 7.77499 17.3333 6.82499 17.3333 5.64166V2.80082C17.3333 1.62499 16.3833 0.666656 15.2167 0.666656ZM12.4 10.2247H15.2167C16.3833 10.2247 17.3333 11.1756 17.3333 12.3589V15.1997C17.3333 16.3747 16.3833 17.3331 15.2167 17.3331H12.4C11.225 17.3331 10.2833 16.3747 10.2833 15.1997V12.3589C10.2833 11.1756 11.225 10.2247 12.4 10.2247Z" fill="#8DC540"/>
</svg>
