<svg width="18" height="18" viewBox="0 0 18 18" fill="none" xmlns="http://www.w3.org/2000/svg">
<path fillRule="evenodd" clipRule="evenodd" d="M0.666664 9.01251C0.666664 4.62259 4.175 0.666656 9.01666 0.666656C13.75 0.666656 17.3333 4.54748 17.3333 8.98747C17.3333 14.1369 13.1333 17.3333 9 17.3333C7.63333 17.3333 6.11666 16.9661 4.9 16.2484C4.475 15.9896 4.11666 15.7977 3.65833 15.9479L1.975 16.4487C1.55 16.5822 1.16666 16.2484 1.29166 15.7977L1.85 13.9282C1.94166 13.6695 1.925 13.3941 1.79166 13.1771C1.075 11.8584 0.666664 10.4146 0.666664 9.01251ZM7.91667 9.01251C7.91667 9.60507 8.39167 10.0808 8.98334 10.0891C9.575 10.0891 10.05 9.60507 10.05 9.02086C10.05 8.4283 9.575 7.95259 8.98334 7.95259C8.40001 7.94424 7.91667 8.4283 7.91667 9.01251ZM11.7583 9.02086C11.7583 9.60507 12.2333 10.0891 12.825 10.0891C13.4167 10.0891 13.8917 9.60507 13.8917 9.02086C13.8917 8.4283 13.4167 7.95259 12.825 7.95259C12.2333 7.95259 11.7583 8.4283 11.7583 9.02086ZM5.14167 10.0891C4.55834 10.0891 4.075 9.60507 4.075 9.02086C4.075 8.4283 4.55 7.95259 5.14167 7.95259C5.73334 7.95259 6.20834 8.4283 6.20834 9.02086C6.20834 9.60507 5.73334 10.0808 5.14167 10.0891Z" fill="#8DC540"/>
</svg>
