<svg width="16" height="18" viewBox="0 0 16 18" fill="none" xmlns="http://www.w3.org/2000/svg">
<path d="M5.37444 16.3111V13.763C5.37444 13.1125 5.889 12.5852 6.52374 12.5852H8.84404C9.14885 12.5852 9.44119 12.7093 9.65672 12.9302C9.87226 13.1511 9.99335 13.4506 9.99335 13.763V16.3111C9.99142 16.5815 10.0949 16.8416 10.2808 17.0335C10.4667 17.2254 10.7197 17.3333 10.9836 17.3333H12.5666C13.306 17.3353 14.0157 17.0357 14.5391 16.5007C15.0626 15.9656 15.3568 15.2391 15.3568 14.4815V7.22237C15.3568 6.61037 15.092 6.02986 14.6339 5.63721L9.24883 1.22988C8.31208 0.457125 6.96991 0.482075 6.06113 1.28914L0.798895 5.63721C0.319145 6.01828 0.0324041 6.60052 0.0182343 7.22237V14.4741C0.0182343 16.0532 1.26742 17.3333 2.80837 17.3333H4.35524C4.90334 17.3333 5.34878 16.8802 5.35275 16.3185L5.37444 16.3111Z" fill="#8DC540"/>
</svg>
