<svg width="20" height="20" viewBox="0 0 20 20" fill="none" xmlns="http://www.w3.org/2000/svg">
<path d="M10.0001 15.8334C13.2217 15.8334 15.8334 13.2217 15.8334 10C15.8334 6.77836 13.2217 4.16669 10.0001 4.16669C6.77842 4.16669 4.16675 6.77836 4.16675 10C4.16675 13.2217 6.77842 15.8334 10.0001 15.8334Z" fill="#F2C94C"/>
<path d="M15.9501 15.95L15.8417 15.8417M15.8417 4.15835L15.9501 4.05002L15.8417 4.15835ZM4.05008 15.95L4.15841 15.8417L4.05008 15.95ZM10.0001 1.73335V1.66669V1.73335ZM10.0001 18.3334V18.2667V18.3334ZM1.73341 10H1.66675H1.73341ZM18.3334 10H18.2667H18.3334ZM4.15841 4.15835L4.05008 4.05002L4.15841 4.15835Z" stroke="#F2C94C" stroke-width="2" stroke-linecap="round" stroke-linejoin="round"/>
</svg>
